<svg xmlns="http://www.w3.org/2000/svg" xmlns:xlink="http://www.w3.org/1999/xlink" contentStyleType="text/css" height="1192.5px" preserveAspectRatio="none" style="width:1729px;height:1192px;background:#FFFFFF;" version="1.1" viewBox="0 0 1729 1192" width="1729.5px" zoomAndPan="magnify"><defs/><g><text fill="#000000" font-family="sans-serif" font-size="21" font-weight="bold" lengthAdjust="spacing" textLength="384" x="671.625" y="41.9927">Metagrid 0.1 - Merkel tree rollup</text><rect fill="#DDDDDD" height="1108.4648" style="stroke:#181818;stroke-width:0.75;" width="238.5" x="1.5" y="64.9453"/><text fill="#000000" font-family="sans-serif" font-size="19.5" font-weight="bold" lengthAdjust="spacing" textLength="195" x="23.25" y="83.0457">Same actor in 0.1</text><rect fill="#DDDDDD" height="1108.4648" style="stroke:#181818;stroke-width:0.75;" width="1042.5" x="351.75" y="64.9453"/><text fill="#000000" font-family="sans-serif" font-size="19.5" font-weight="bold" lengthAdjust="spacing" textLength="171" x="787.5" y="83.0457">Solana network</text><rect fill="none" height="135.7969" style="stroke:#000000;stroke-width:2.25;" width="782.25" x="82.5" y="552.1289"/><line style="stroke:#181818;stroke-width:0.75;stroke-dasharray:5.0,5.0;" x1="45" x2="45" y1="211.5352" y2="1051.0195"/><line style="stroke:#181818;stroke-width:0.75;stroke-dasharray:5.0,5.0;" x1="165" x2="165" y1="211.5352" y2="1051.0195"/><line style="stroke:#181818;stroke-width:0.75;stroke-dasharray:5.0,5.0;" x1="422.25" x2="422.25" y1="211.5352" y2="1051.0195"/><line style="stroke:#181818;stroke-width:0.75;stroke-dasharray:5.0,5.0;" x1="710.25" x2="710.25" y1="211.5352" y2="1051.0195"/><line style="stroke:#181818;stroke-width:0.75;stroke-dasharray:5.0,5.0;" x1="917.25" x2="917.25" y1="211.5352" y2="1051.0195"/><line style="stroke:#181818;stroke-width:0.75;stroke-dasharray:5.0,5.0;" x1="1056.75" x2="1056.75" y1="211.5352" y2="1051.0195"/><line style="stroke:#181818;stroke-width:0.75;stroke-dasharray:5.0,5.0;" x1="1215.75" x2="1215.75" y1="211.5352" y2="1051.0195"/><line style="stroke:#181818;stroke-width:0.75;stroke-dasharray:5.0,5.0;" x1="1344.75" x2="1344.75" y1="211.5352" y2="1051.0195"/><line style="stroke:#181818;stroke-width:0.75;stroke-dasharray:5.0,5.0;" x1="1451.25" x2="1451.25" y1="211.5352" y2="1051.0195"/><line style="stroke:#181818;stroke-width:0.75;stroke-dasharray:5.0,5.0;" x1="1658.25" x2="1658.25" y1="211.5352" y2="1051.0195"/><text fill="#000000" font-family="sans-serif" font-size="21" lengthAdjust="spacing" textLength="66" x="7.5" y="206.5825">Staker</text><ellipse cx="45" cy="109.8398" fill="#E2E2F0" rx="12" ry="12" style="stroke:#181818;stroke-width:0.75;"/><path d="M45,121.8398 L45,162.3398 M25.5,133.8398 L64.5,133.8398 M45,162.3398 L25.5,184.8398 M45,162.3398 L64.5,184.8398 " fill="none" style="stroke:#181818;stroke-width:0.75;"/><text fill="#000000" font-family="sans-serif" font-size="21" lengthAdjust="spacing" textLength="66" x="7.5" y="1069.0122">Staker</text><ellipse cx="45" cy="1086.7148" fill="#E2E2F0" rx="12" ry="12" style="stroke:#181818;stroke-width:0.75;"/><path d="M45,1098.7148 L45,1139.2148 M25.5,1110.7148 L64.5,1110.7148 M45,1139.2148 L25.5,1161.7148 M45,1139.2148 L64.5,1161.7148 " fill="none" style="stroke:#181818;stroke-width:0.75;"/><text fill="#000000" font-family="sans-serif" font-size="21" lengthAdjust="spacing" textLength="127.5" x="97.5" y="206.5825">Tree creator</text><ellipse cx="165.75" cy="109.8398" fill="#E2E2F0" rx="12" ry="12" style="stroke:#181818;stroke-width:0.75;"/><path d="M165.75,121.8398 L165.75,162.3398 M146.25,133.8398 L185.25,133.8398 M165.75,162.3398 L146.25,184.8398 M165.75,162.3398 L185.25,184.8398 " fill="none" style="stroke:#181818;stroke-width:0.75;"/><text fill="#000000" font-family="sans-serif" font-size="21" lengthAdjust="spacing" textLength="127.5" x="97.5" y="1069.0122">Tree creator</text><ellipse cx="165.75" cy="1086.7148" fill="#E2E2F0" rx="12" ry="12" style="stroke:#181818;stroke-width:0.75;"/><path d="M165.75,1098.7148 L165.75,1139.2148 M146.25,1110.7148 L185.25,1110.7148 M165.75,1139.2148 L146.25,1161.7148 M165.75,1139.2148 L185.25,1161.7148 " fill="none" style="stroke:#181818;stroke-width:0.75;"/><text fill="#000000" font-family="sans-serif" font-size="21" lengthAdjust="spacing" textLength="120" x="357.75" y="182.1372">Bubblegum</text><text fill="#000000" font-family="sans-serif" font-size="21" lengthAdjust="spacing" textLength="85.5" x="375" y="206.5825">contract</text><ellipse cx="422.25" cy="138.6445" fill="#E2E2F0" rx="18" ry="18" style="stroke:#181818;stroke-width:0.75;"/><polygon fill="#181818" points="416.25,120.6445,425.25,113.1445,422.25,120.6445,425.25,128.1445,416.25,120.6445" style="stroke:#181818;stroke-width:1.5;"/><text fill="#000000" font-family="sans-serif" font-size="21" lengthAdjust="spacing" textLength="120" x="357.75" y="1069.0122">Bubblegum</text><text fill="#000000" font-family="sans-serif" font-size="21" lengthAdjust="spacing" textLength="85.5" x="375" y="1093.4575">contract</text><ellipse cx="422.25" cy="1122.4102" fill="#E2E2F0" rx="18" ry="18" style="stroke:#181818;stroke-width:0.75;"/><polygon fill="#181818" points="416.25,1104.4102,425.25,1096.9102,422.25,1104.4102,425.25,1111.9102,416.25,1104.4102" style="stroke:#181818;stroke-width:1.5;"/><text fill="#000000" font-family="sans-serif" font-size="21" lengthAdjust="spacing" textLength="270" x="570.75" y="182.1372">spl_account_compression</text><text fill="#000000" font-family="sans-serif" font-size="21" lengthAdjust="spacing" textLength="85.5" x="663" y="206.5825">contract</text><ellipse cx="710.25" cy="138.6445" fill="#E2E2F0" rx="18" ry="18" style="stroke:#181818;stroke-width:0.75;"/><polygon fill="#181818" points="704.25,120.6445,713.25,113.1445,710.25,120.6445,713.25,128.1445,704.25,120.6445" style="stroke:#181818;stroke-width:1.5;"/><text fill="#000000" font-family="sans-serif" font-size="21" lengthAdjust="spacing" textLength="270" x="570.75" y="1069.0122">spl_account_compression</text><text fill="#000000" font-family="sans-serif" font-size="21" lengthAdjust="spacing" textLength="85.5" x="663" y="1093.4575">contract</text><ellipse cx="710.25" cy="1122.4102" fill="#E2E2F0" rx="18" ry="18" style="stroke:#181818;stroke-width:0.75;"/><polygon fill="#181818" points="704.25,1104.4102,713.25,1096.9102,710.25,1104.4102,713.25,1111.9102,704.25,1104.4102" style="stroke:#181818;stroke-width:1.5;"/><text fill="#000000" font-family="sans-serif" font-size="21" lengthAdjust="spacing" textLength="48" x="888.75" y="182.1372">Tree</text><text fill="#000000" font-family="sans-serif" font-size="21" lengthAdjust="spacing" textLength="96" x="864.75" y="206.5825">accounts</text><path d="M890.25,108.6445 C890.25,93.6445 917.25,93.6445 917.25,93.6445 C917.25,93.6445 944.25,93.6445 944.25,108.6445 L944.25,147.6445 C944.25,162.6445 917.25,162.6445 917.25,162.6445 C917.25,162.6445 890.25,162.6445 890.25,147.6445 L890.25,108.6445 " fill="#E2E2F0" style="stroke:#181818;stroke-width:2.25;"/><path d="M890.25,108.6445 C890.25,123.6445 917.25,123.6445 917.25,123.6445 C917.25,123.6445 944.25,123.6445 944.25,108.6445 " fill="none" style="stroke:#181818;stroke-width:2.25;"/><text fill="#000000" font-family="sans-serif" font-size="21" lengthAdjust="spacing" textLength="48" x="888.75" y="1069.0122">Tree</text><text fill="#000000" font-family="sans-serif" font-size="21" lengthAdjust="spacing" textLength="96" x="864.75" y="1093.4575">accounts</text><path d="M890.25,1113.4102 C890.25,1098.4102 917.25,1098.4102 917.25,1098.4102 C917.25,1098.4102 944.25,1098.4102 944.25,1113.4102 L944.25,1152.4102 C944.25,1167.4102 917.25,1167.4102 917.25,1167.4102 C917.25,1167.4102 890.25,1167.4102 890.25,1152.4102 L890.25,1113.4102 " fill="#E2E2F0" style="stroke:#181818;stroke-width:2.25;"/><path d="M890.25,1113.4102 C890.25,1128.4102 917.25,1128.4102 917.25,1128.4102 C917.25,1128.4102 944.25,1128.4102 944.25,1113.4102 " fill="none" style="stroke:#181818;stroke-width:2.25;"/><text fill="#000000" font-family="sans-serif" font-size="21" lengthAdjust="spacing" textLength="136.5" x="984.75" y="182.1372">MPLX staking</text><text fill="#000000" font-family="sans-serif" font-size="21" lengthAdjust="spacing" textLength="85.5" x="1010.25" y="206.5825">contract</text><ellipse cx="1057.5" cy="138.6445" fill="#E2E2F0" rx="18" ry="18" style="stroke:#181818;stroke-width:0.75;"/><polygon fill="#181818" points="1051.5,120.6445,1060.5,113.1445,1057.5,120.6445,1060.5,128.1445,1051.5,120.6445" style="stroke:#181818;stroke-width:1.5;"/><text fill="#000000" font-family="sans-serif" font-size="21" lengthAdjust="spacing" textLength="136.5" x="984.75" y="1069.0122">MPLX staking</text><text fill="#000000" font-family="sans-serif" font-size="21" lengthAdjust="spacing" textLength="85.5" x="1010.25" y="1093.4575">contract</text><ellipse cx="1057.5" cy="1122.4102" fill="#E2E2F0" rx="18" ry="18" style="stroke:#181818;stroke-width:0.75;"/><polygon fill="#181818" points="1051.5,1104.4102,1060.5,1096.9102,1057.5,1104.4102,1060.5,1111.9102,1051.5,1104.4102" style="stroke:#181818;stroke-width:1.5;"/><text fill="#000000" font-family="sans-serif" font-size="21" lengthAdjust="spacing" textLength="132" x="1145.25" y="182.1372">MPLX reward</text><text fill="#000000" font-family="sans-serif" font-size="21" lengthAdjust="spacing" textLength="85.5" x="1168.5" y="206.5825">contract</text><ellipse cx="1215.75" cy="138.6445" fill="#E2E2F0" rx="18" ry="18" style="stroke:#181818;stroke-width:0.75;"/><polygon fill="#181818" points="1209.75,120.6445,1218.75,113.1445,1215.75,120.6445,1218.75,128.1445,1209.75,120.6445" style="stroke:#181818;stroke-width:1.5;"/><text fill="#000000" font-family="sans-serif" font-size="21" lengthAdjust="spacing" textLength="132" x="1145.25" y="1069.0122">MPLX reward</text><text fill="#000000" font-family="sans-serif" font-size="21" lengthAdjust="spacing" textLength="85.5" x="1168.5" y="1093.4575">contract</text><ellipse cx="1215.75" cy="1122.4102" fill="#E2E2F0" rx="18" ry="18" style="stroke:#181818;stroke-width:0.75;"/><polygon fill="#181818" points="1209.75,1104.4102,1218.75,1096.9102,1215.75,1104.4102,1218.75,1111.9102,1209.75,1104.4102" style="stroke:#181818;stroke-width:1.5;"/><text fill="#000000" font-family="sans-serif" font-size="21" lengthAdjust="spacing" textLength="78" x="1301.25" y="182.1372">Reward</text><text fill="#000000" font-family="sans-serif" font-size="21" lengthAdjust="spacing" textLength="45" x="1317.75" y="206.5825">pool</text><path d="M1317.75,108.6445 C1317.75,93.6445 1344.75,93.6445 1344.75,93.6445 C1344.75,93.6445 1371.75,93.6445 1371.75,108.6445 L1371.75,147.6445 C1371.75,162.6445 1344.75,162.6445 1344.75,162.6445 C1344.75,162.6445 1317.75,162.6445 1317.75,147.6445 L1317.75,108.6445 " fill="#E2E2F0" style="stroke:#181818;stroke-width:2.25;"/><path d="M1317.75,108.6445 C1317.75,123.6445 1344.75,123.6445 1344.75,123.6445 C1344.75,123.6445 1371.75,123.6445 1371.75,108.6445 " fill="none" style="stroke:#181818;stroke-width:2.25;"/><text fill="#000000" font-family="sans-serif" font-size="21" lengthAdjust="spacing" textLength="78" x="1301.25" y="1069.0122">Reward</text><text fill="#000000" font-family="sans-serif" font-size="21" lengthAdjust="spacing" textLength="45" x="1317.75" y="1093.4575">pool</text><path d="M1317.75,1113.4102 C1317.75,1098.4102 1344.75,1098.4102 1344.75,1098.4102 C1344.75,1098.4102 1371.75,1098.4102 1371.75,1113.4102 L1371.75,1152.4102 C1371.75,1167.4102 1344.75,1167.4102 1344.75,1167.4102 C1344.75,1167.4102 1317.75,1167.4102 1317.75,1152.4102 L1317.75,1113.4102 " fill="#E2E2F0" style="stroke:#181818;stroke-width:2.25;"/><path d="M1317.75,1113.4102 C1317.75,1128.4102 1344.75,1128.4102 1344.75,1128.4102 C1344.75,1128.4102 1371.75,1128.4102 1371.75,1113.4102 " fill="none" style="stroke:#181818;stroke-width:2.25;"/><text fill="#000000" font-family="sans-serif" font-size="21" lengthAdjust="spacing" textLength="87" x="1403.25" y="206.5825">Arweave</text><path d="M1424.25,133.0898 C1424.25,118.0898 1451.25,118.0898 1451.25,118.0898 C1451.25,118.0898 1478.25,118.0898 1478.25,133.0898 L1478.25,172.0898 C1478.25,187.0898 1451.25,187.0898 1451.25,187.0898 C1451.25,187.0898 1424.25,187.0898 1424.25,172.0898 L1424.25,133.0898 " fill="#E2E2F0" style="stroke:#181818;stroke-width:2.25;"/><path d="M1424.25,133.0898 C1424.25,148.0898 1451.25,148.0898 1451.25,148.0898 C1451.25,148.0898 1478.25,148.0898 1478.25,133.0898 " fill="none" style="stroke:#181818;stroke-width:2.25;"/><text fill="#000000" font-family="sans-serif" font-size="21" lengthAdjust="spacing" textLength="87" x="1403.25" y="1069.0122">Arweave</text><path d="M1424.25,1088.9648 C1424.25,1073.9648 1451.25,1073.9648 1451.25,1073.9648 C1451.25,1073.9648 1478.25,1073.9648 1478.25,1088.9648 L1478.25,1127.9648 C1478.25,1142.9648 1451.25,1142.9648 1451.25,1142.9648 C1451.25,1142.9648 1424.25,1142.9648 1424.25,1127.9648 L1424.25,1088.9648 " fill="#E2E2F0" style="stroke:#181818;stroke-width:2.25;"/><path d="M1424.25,1088.9648 C1424.25,1103.9648 1451.25,1103.9648 1451.25,1103.9648 C1451.25,1103.9648 1478.25,1103.9648 1478.25,1088.9648 " fill="none" style="stroke:#181818;stroke-width:2.25;"/><rect fill="#FFFF00" height="69.8906" rx="3.75" ry="3.75" style="stroke:#181818;stroke-width:0.75;" width="126" x="1595.25" y="140.1445"/><text fill="#000000" font-family="sans-serif" font-size="21" lengthAdjust="spacing" textLength="105" x="1605.75" y="170.1372">DAS Node</text><text fill="#000000" font-family="sans-serif" font-size="21" lengthAdjust="spacing" textLength="91.5" x="1612.5" y="194.5825">Operator</text><rect fill="#FFFF00" height="69.8906" rx="3.75" ry="3.75" style="stroke:#181818;stroke-width:0.75;" width="126" x="1595.25" y="1049.5195"/><text fill="#000000" font-family="sans-serif" font-size="21" lengthAdjust="spacing" textLength="105" x="1605.75" y="1079.5122">DAS Node</text><text fill="#000000" font-family="sans-serif" font-size="21" lengthAdjust="spacing" textLength="91.5" x="1612.5" y="1103.9575">Operator</text><polygon fill="#181818" points="1039.5,256.7344,1054.5,262.7344,1039.5,268.7344,1045.5,262.7344" style="stroke:#181818;stroke-width:1.5;"/><line style="stroke:#181818;stroke-width:1.5;" x1="45" x2="1048.5" y1="262.7344" y2="262.7344"/><text fill="#000000" font-family="sans-serif" font-size="19.5" lengthAdjust="spacing" textLength="127.5" x="55.5" y="255.1355">Make a stake</text><path d="M1065,234.0352 L1065,271.5352 L1491,271.5352 L1491,249.0352 L1476,234.0352 L1065,234.0352 " fill="#FEFFDD" style="stroke:#181818;stroke-width:0.75;"/><path d="M1476,234.0352 L1476,249.0352 L1491,249.0352 L1476,234.0352 " fill="#FEFFDD" style="stroke:#181818;stroke-width:0.75;"/><text fill="#000000" font-family="sans-serif" font-size="19.5" lengthAdjust="spacing" textLength="394.5" x="1074" y="259.6355">Rollup operation requires a stake in MPLX</text><polygon fill="#181818" points="692.25,327.6328,707.25,333.6328,692.25,339.6328,698.25,333.6328" style="stroke:#181818;stroke-width:1.5;"/><line style="stroke:#181818;stroke-width:1.5;" x1="165.75" x2="701.25" y1="333.6328" y2="333.6328"/><text fill="#000000" font-family="sans-serif" font-size="19.5" lengthAdjust="spacing" textLength="238.5" x="176.25" y="303.3347">Prepare uninitialized tree</text><text fill="#000000" font-family="sans-serif" font-size="19.5" lengthAdjust="spacing" textLength="178.5" x="176.25" y="326.0339">(spl::prepare_tree)</text><polygon fill="#181818" points="899.25,394.0313,914.25,400.0313,899.25,406.0313,905.25,400.0313" style="stroke:#181818;stroke-width:1.5;"/><line style="stroke:#181818;stroke-width:1.5;" x1="422.25" x2="908.25" y1="400.0313" y2="400.0313"/><text fill="#000000" font-family="sans-serif" font-size="19.5" lengthAdjust="spacing" textLength="151.5" x="432.75" y="369.7332">Create_account</text><text fill="#000000" font-family="sans-serif" font-size="19.5" lengthAdjust="spacing" textLength="252" x="432.75" y="392.4324">(spl_acount_compression)</text><line style="stroke:#181818;stroke-width:1.5;" x1="165.75" x2="228.75" y1="466.4297" y2="466.4297"/><line style="stroke:#181818;stroke-width:1.5;" x1="228.75" x2="228.75" y1="466.4297" y2="485.9297"/><line style="stroke:#181818;stroke-width:1.5;" x1="167.25" x2="228.75" y1="485.9297" y2="485.9297"/><polygon fill="#181818" points="182.25,479.9297,167.25,485.9297,182.25,491.9297,176.25,485.9297" style="stroke:#181818;stroke-width:1.5;"/><text fill="#000000" font-family="sans-serif" font-size="19.5" lengthAdjust="spacing" textLength="135" x="176.25" y="436.1316">Generate tree</text><text fill="#000000" font-family="sans-serif" font-size="19.5" lengthAdjust="spacing" textLength="225" x="176.25" y="458.8308">(Rolled Mint Instruction)</text><polygon fill="#181818" points="1433.25,523.6289,1448.25,529.6289,1433.25,535.6289,1439.25,529.6289" style="stroke:#181818;stroke-width:1.5;"/><line style="stroke:#181818;stroke-width:1.5;" x1="165.75" x2="1442.25" y1="529.6289" y2="529.6289"/><text fill="#000000" font-family="sans-serif" font-size="19.5" lengthAdjust="spacing" textLength="322.5" x="176.25" y="522.03">Upload rollup tree in form of JSON</text><path d="M82.5,552.1289 L198,552.1289 L198,562.8281 L183,577.8281 L82.5,577.8281 L82.5,552.1289 " fill="#EEEEEE" style="stroke:#000000;stroke-width:2.25;"/><rect fill="none" height="135.7969" style="stroke:#000000;stroke-width:2.25;" width="782.25" x="82.5" y="552.1289"/><text fill="#000000" font-family="sans-serif" font-size="19.5" font-weight="bold" lengthAdjust="spacing" textLength="48" x="105" y="571.7292">loop</text><polygon fill="#181818" points="404.25,603.5273,419.25,609.5273,404.25,615.5273,410.25,609.5273" style="stroke:#181818;stroke-width:1.5;"/><line style="stroke:#181818;stroke-width:1.5;" x1="165.75" x2="413.25" y1="609.5273" y2="609.5273"/><text fill="#000000" font-family="sans-serif" font-size="19.5" lengthAdjust="spacing" textLength="220.5" x="176.25" y="601.9285">append_canopy_nodes</text><polygon fill="#181818" points="692.25,669.9258,707.25,675.9258,692.25,681.9258,698.25,675.9258" style="stroke:#181818;stroke-width:1.5;"/><line style="stroke:#181818;stroke-width:1.5;" x1="422.25" x2="701.25" y1="675.9258" y2="675.9258"/><text fill="#000000" font-family="sans-serif" font-size="19.5" lengthAdjust="spacing" textLength="129" x="432.75" y="645.6277">setup canopy</text><text fill="#000000" font-family="sans-serif" font-size="19.5" lengthAdjust="spacing" textLength="235.5" x="432.75" y="668.3269">(append_canopy_nodes)</text><polygon fill="#181818" points="404.25,746.8242,419.25,752.8242,404.25,758.8242,410.25,752.8242" style="stroke:#181818;stroke-width:1.5;"/><line style="stroke:#181818;stroke-width:1.5;" x1="165.75" x2="413.25" y1="752.8242" y2="752.8242"/><text fill="#000000" font-family="sans-serif" font-size="19.5" lengthAdjust="spacing" textLength="115.5" x="176.25" y="722.5261">Finalize tree</text><text fill="#000000" font-family="sans-serif" font-size="19.5" lengthAdjust="spacing" textLength="220.5" x="176.25" y="745.2253">(finilize_tree_with_root)</text><path d="M429,712.7754 L429,750.2754 L832.5,750.2754 L832.5,727.7754 L817.5,712.7754 L429,712.7754 " fill="#FEFFDD" style="stroke:#181818;stroke-width:0.75;"/><path d="M817.5,712.7754 L817.5,727.7754 L832.5,727.7754 L817.5,712.7754 " fill="#FEFFDD" style="stroke:#181818;stroke-width:0.75;"/><text fill="#000000" font-family="sans-serif" font-size="19.5" lengthAdjust="spacing" textLength="372" x="438" y="738.3757">Signed by both tree creator and staker</text><polygon fill="#181818" points="1039.5,790.5234,1054.5,796.5234,1039.5,802.5234,1045.5,796.5234" style="stroke:#181818;stroke-width:1.5;"/><line style="stroke:#181818;stroke-width:1.5;" x1="422.25" x2="1048.5" y1="796.5234" y2="796.5234"/><text fill="#000000" font-family="sans-serif" font-size="19.5" lengthAdjust="spacing" textLength="117" x="432.75" y="788.9246">Check stake</text><polygon fill="#181818" points="692.25,834.2227,707.25,840.2227,692.25,846.2227,698.25,840.2227" style="stroke:#181818;stroke-width:1.5;"/><line style="stroke:#181818;stroke-width:1.5;" x1="422.25" x2="701.25" y1="840.2227" y2="840.2227"/><text fill="#000000" font-family="sans-serif" font-size="19.5" lengthAdjust="spacing" textLength="252" x="432.75" y="832.6238">init_merkle_tree_with_root</text><polygon fill="#181818" points="1326.75,877.9219,1341.75,883.9219,1326.75,889.9219,1332.75,883.9219" style="stroke:#181818;stroke-width:1.5;"/><line style="stroke:#181818;stroke-width:1.5;" x1="422.25" x2="1335.75" y1="883.9219" y2="883.9219"/><text fill="#000000" font-family="sans-serif" font-size="19.5" lengthAdjust="spacing" textLength="282" x="432.75" y="876.323">Adding fee to the reward pool</text><polygon fill="#181818" points="1640.25,921.6211,1655.25,927.6211,1640.25,933.6211,1646.25,927.6211" style="stroke:#181818;stroke-width:1.5;"/><line style="stroke:#181818;stroke-width:1.5;" x1="422.25" x2="1649.25" y1="927.6211" y2="927.6211"/><text fill="#000000" font-family="sans-serif" font-size="19.5" lengthAdjust="spacing" textLength="234" x="432.75" y="920.0222">Event create_rollup_tree</text><polygon fill="#181818" points="1467.75,965.3203,1452.75,971.3203,1467.75,977.3203,1461.75,971.3203" style="stroke:#181818;stroke-width:1.5;"/><line style="stroke:#181818;stroke-width:1.5;" x1="1458.75" x2="1656.75" y1="971.3203" y2="971.3203"/><text fill="#000000" font-family="sans-serif" font-size="19.5" lengthAdjust="spacing" textLength="171" x="1476.75" y="963.7214">Raw JSON request</text><path d="M27,990.8203 L27,1028.3203 L817.5,1028.3203 L817.5,1005.8203 L802.5,990.8203 L27,990.8203 " fill="#FEFFDD" style="stroke:#181818;stroke-width:0.75;"/><path d="M802.5,990.8203 L802.5,1005.8203 L817.5,1005.8203 L802.5,990.8203 " fill="#FEFFDD" style="stroke:#181818;stroke-width:0.75;"/><text fill="#000000" font-family="sans-serif" font-size="19.5" lengthAdjust="spacing" textLength="759" x="36" y="1016.4207">Resulting Merkle tree is fully compatible with all existing bubblegum instructions</text><!--SRC=[ZLLDZzem4BtxLuooXvR3hhg7NdAeHEc7MfNT5RHI3qYHIGQmCBPhEx3qrtTiXuG4a9fJF9clz-PvueMN25FqV6r51UyU7k6UZdQB4hn51Akbh0rp9IU_nuVtx0tSNJp92ANU6QrGUGUjSUZ9bleLiZdV8V3IQmj2XQeP0tgI9PjxlaMR0NUGNiy-GlOpj5LQv7ICFi4mIMU6gWAgq5JHaYiE2lr1ssqgKMhb2HDa7-lbKkAwtYrKj57w34AwzaFVtnbPyBBKjV9506hHEQ7LUNJeryXnSffqFZ5HnJrVSeS9m48rkLmAYvts2qvVVlm6H_Y5MW-h9EkaiLs9itZWjXg4pQAn5zLrDMiYZDRopFk5ZYshdVVO7f3lCJesxynmwqKf35SUia_ZEJpfYe0-6xJjhCWSh71tH2drWLqLIIieeJo6Led3sv8AeaeoWViFGseWXobz0XwPHAQq9qsBzIR0dqLjWuuDKWrYxKyjQ6Wdzo3EG6Sa88GonixK5kjT6pXLVR58V23KIYZX1PVYBrRnIYtKMz9IdflaKGJRYBMgYqcJS7E8XV2aknH9fw48HnTjdHzp-8egGCHJ_G2SkfaIl_1DEM_hoF5ecAMPB6NuPQJcLRCDqcOWRbRQxa2luFly-OangRKXLWSvMc0vS6E8oABaIfjZeKW7Zlpxo6_GwT1JtHH90Ava6eKXiLl5ASKNeU8KJYIiQ33X70TG78JV55PhF-fhP2xMYgXQ7ka2-4r2tYmVuAGAbnPK9v0-d0irJZPORXin_XVo89zYHnjP3ZljntVNbOB6LKLbOKNDUWr-Wyr2W72x1psUhcGEd_UqknCwBDAeOqbsSkb9OiOFSV3nrg3pB16dztGHknqwGrTB7vgPHWoDTXoiQYcFyPT1Tu-S8U02BYNWgt0nOjcsAJgHkexhVm00]--></g></svg>