<?xml version="1.0" encoding="windows-1252" standalone="no"?>
<svg xmlns="http://www.w3.org/2000/svg" xmlns:xlink="http://www.w3.org/1999/xlink" contentStyleType="text/css" height="1213.5px" preserveAspectRatio="none" style="width:1738px;height:1213px;background:#FFFFFF;" version="1.1" viewBox="0 0 1738 1213" width="1738.5px" zoomAndPan="magnify"><defs/><g><text fill="#000000" font-family="sans-serif" font-size="21" font-weight="bold" lengthAdjust="spacing" textLength="384" x="671.625" y="41.9927">Metagrid 0.1 - Merkel tree rollup</text><rect fill="#DDDDDD" height="1129.4648" style="stroke:#181818;stroke-width:0.75;" width="238.5" x="1.5" y="64.9453"/><text fill="#000000" font-family="sans-serif" font-size="19.5" font-weight="bold" lengthAdjust="spacing" textLength="195" x="23.25" y="83.0457">Same actor in 0.1</text><rect fill="#DDDDDD" height="1129.4648" style="stroke:#181818;stroke-width:0.75;" width="1042.5" x="351.75" y="64.9453"/><text fill="#000000" font-family="sans-serif" font-size="19.5" font-weight="bold" lengthAdjust="spacing" textLength="171" x="787.5" y="83.0457">Solana network</text><rect fill="none" height="92.0977" style="stroke:#000000;stroke-width:2.25;" width="522" x="342.75" y="683.2266"/><line style="stroke:#181818;stroke-width:0.75;stroke-dasharray:5.0,5.0;" x1="45" x2="45" y1="211.5352" y2="1072.0195"/><line style="stroke:#181818;stroke-width:0.75;stroke-dasharray:5.0,5.0;" x1="165" x2="165" y1="211.5352" y2="1072.0195"/><line style="stroke:#181818;stroke-width:0.75;stroke-dasharray:5.0,5.0;" x1="422.25" x2="422.25" y1="211.5352" y2="1072.0195"/><line style="stroke:#181818;stroke-width:0.75;stroke-dasharray:5.0,5.0;" x1="710.25" x2="710.25" y1="211.5352" y2="1072.0195"/><line style="stroke:#181818;stroke-width:0.75;stroke-dasharray:5.0,5.0;" x1="917.25" x2="917.25" y1="211.5352" y2="1072.0195"/><line style="stroke:#181818;stroke-width:0.75;stroke-dasharray:5.0,5.0;" x1="1056.75" x2="1056.75" y1="211.5352" y2="1072.0195"/><line style="stroke:#181818;stroke-width:0.75;stroke-dasharray:5.0,5.0;" x1="1215.75" x2="1215.75" y1="211.5352" y2="1072.0195"/><line style="stroke:#181818;stroke-width:0.75;stroke-dasharray:5.0,5.0;" x1="1344.75" x2="1344.75" y1="211.5352" y2="1072.0195"/><line style="stroke:#181818;stroke-width:0.75;stroke-dasharray:5.0,5.0;" x1="1451.25" x2="1451.25" y1="211.5352" y2="1072.0195"/><line style="stroke:#181818;stroke-width:0.75;stroke-dasharray:5.0,5.0;" x1="1658.25" x2="1658.25" y1="211.5352" y2="1072.0195"/><text fill="#000000" font-family="sans-serif" font-size="21" lengthAdjust="spacing" textLength="66" x="7.5" y="206.5825">Staker</text><ellipse cx="45" cy="109.8398" fill="#E2E2F0" rx="12" ry="12" style="stroke:#181818;stroke-width:0.75;"/><path d="M45,121.8398 L45,162.3398 M25.5,133.8398 L64.5,133.8398 M45,162.3398 L25.5,184.8398 M45,162.3398 L64.5,184.8398 " fill="none" style="stroke:#181818;stroke-width:0.75;"/><text fill="#000000" font-family="sans-serif" font-size="21" lengthAdjust="spacing" textLength="66" x="7.5" y="1090.0122">Staker</text><ellipse cx="45" cy="1107.7148" fill="#E2E2F0" rx="12" ry="12" style="stroke:#181818;stroke-width:0.75;"/><path d="M45,1119.7148 L45,1160.2148 M25.5,1131.7148 L64.5,1131.7148 M45,1160.2148 L25.5,1182.7148 M45,1160.2148 L64.5,1182.7148 " fill="none" style="stroke:#181818;stroke-width:0.75;"/><text fill="#000000" font-family="sans-serif" font-size="21" lengthAdjust="spacing" textLength="127.5" x="97.5" y="206.5825">Tree creator</text><ellipse cx="165.75" cy="109.8398" fill="#E2E2F0" rx="12" ry="12" style="stroke:#181818;stroke-width:0.75;"/><path d="M165.75,121.8398 L165.75,162.3398 M146.25,133.8398 L185.25,133.8398 M165.75,162.3398 L146.25,184.8398 M165.75,162.3398 L185.25,184.8398 " fill="none" style="stroke:#181818;stroke-width:0.75;"/><text fill="#000000" font-family="sans-serif" font-size="21" lengthAdjust="spacing" textLength="127.5" x="97.5" y="1090.0122">Tree creator</text><ellipse cx="165.75" cy="1107.7148" fill="#E2E2F0" rx="12" ry="12" style="stroke:#181818;stroke-width:0.75;"/><path d="M165.75,1119.7148 L165.75,1160.2148 M146.25,1131.7148 L185.25,1131.7148 M165.75,1160.2148 L146.25,1182.7148 M165.75,1160.2148 L185.25,1182.7148 " fill="none" style="stroke:#181818;stroke-width:0.75;"/><text fill="#000000" font-family="sans-serif" font-size="21" lengthAdjust="spacing" textLength="120" x="357.75" y="182.1372">Bubblegum</text><text fill="#000000" font-family="sans-serif" font-size="21" lengthAdjust="spacing" textLength="85.5" x="375" y="206.5825">contract</text><ellipse cx="422.25" cy="138.6445" fill="#E2E2F0" rx="18" ry="18" style="stroke:#181818;stroke-width:0.75;"/><polygon fill="#181818" points="416.25,120.6445,425.25,113.1445,422.25,120.6445,425.25,128.1445,416.25,120.6445" style="stroke:#181818;stroke-width:1.5;"/><text fill="#000000" font-family="sans-serif" font-size="21" lengthAdjust="spacing" textLength="120" x="357.75" y="1090.0122">Bubblegum</text><text fill="#000000" font-family="sans-serif" font-size="21" lengthAdjust="spacing" textLength="85.5" x="375" y="1114.4575">contract</text><ellipse cx="422.25" cy="1143.4102" fill="#E2E2F0" rx="18" ry="18" style="stroke:#181818;stroke-width:0.75;"/><polygon fill="#181818" points="416.25,1125.4102,425.25,1117.9102,422.25,1125.4102,425.25,1132.9102,416.25,1125.4102" style="stroke:#181818;stroke-width:1.5;"/><text fill="#000000" font-family="sans-serif" font-size="21" lengthAdjust="spacing" textLength="270" x="570.75" y="182.1372">spl_account_compression</text><text fill="#000000" font-family="sans-serif" font-size="21" lengthAdjust="spacing" textLength="85.5" x="663" y="206.5825">contract</text><ellipse cx="710.25" cy="138.6445" fill="#E2E2F0" rx="18" ry="18" style="stroke:#181818;stroke-width:0.75;"/><polygon fill="#181818" points="704.25,120.6445,713.25,113.1445,710.25,120.6445,713.25,128.1445,704.25,120.6445" style="stroke:#181818;stroke-width:1.5;"/><text fill="#000000" font-family="sans-serif" font-size="21" lengthAdjust="spacing" textLength="270" x="570.75" y="1090.0122">spl_account_compression</text><text fill="#000000" font-family="sans-serif" font-size="21" lengthAdjust="spacing" textLength="85.5" x="663" y="1114.4575">contract</text><ellipse cx="710.25" cy="1143.4102" fill="#E2E2F0" rx="18" ry="18" style="stroke:#181818;stroke-width:0.75;"/><polygon fill="#181818" points="704.25,1125.4102,713.25,1117.9102,710.25,1125.4102,713.25,1132.9102,704.25,1125.4102" style="stroke:#181818;stroke-width:1.5;"/><text fill="#000000" font-family="sans-serif" font-size="21" lengthAdjust="spacing" textLength="48" x="888.75" y="182.1372">Tree</text><text fill="#000000" font-family="sans-serif" font-size="21" lengthAdjust="spacing" textLength="96" x="864.75" y="206.5825">accounts</text><path d="M890.25,108.6445 C890.25,93.6445 917.25,93.6445 917.25,93.6445 C917.25,93.6445 944.25,93.6445 944.25,108.6445 L944.25,147.6445 C944.25,162.6445 917.25,162.6445 917.25,162.6445 C917.25,162.6445 890.25,162.6445 890.25,147.6445 L890.25,108.6445 " fill="#E2E2F0" style="stroke:#181818;stroke-width:2.25;"/><path d="M890.25,108.6445 C890.25,123.6445 917.25,123.6445 917.25,123.6445 C917.25,123.6445 944.25,123.6445 944.25,108.6445 " fill="none" style="stroke:#181818;stroke-width:2.25;"/><text fill="#000000" font-family="sans-serif" font-size="21" lengthAdjust="spacing" textLength="48" x="888.75" y="1090.0122">Tree</text><text fill="#000000" font-family="sans-serif" font-size="21" lengthAdjust="spacing" textLength="96" x="864.75" y="1114.4575">accounts</text><path d="M890.25,1134.4102 C890.25,1119.4102 917.25,1119.4102 917.25,1119.4102 C917.25,1119.4102 944.25,1119.4102 944.25,1134.4102 L944.25,1173.4102 C944.25,1188.4102 917.25,1188.4102 917.25,1188.4102 C917.25,1188.4102 890.25,1188.4102 890.25,1173.4102 L890.25,1134.4102 " fill="#E2E2F0" style="stroke:#181818;stroke-width:2.25;"/><path d="M890.25,1134.4102 C890.25,1149.4102 917.25,1149.4102 917.25,1149.4102 C917.25,1149.4102 944.25,1149.4102 944.25,1134.4102 " fill="none" style="stroke:#181818;stroke-width:2.25;"/><text fill="#000000" font-family="sans-serif" font-size="21" lengthAdjust="spacing" textLength="136.5" x="984.75" y="182.1372">MPLX staking</text><text fill="#000000" font-family="sans-serif" font-size="21" lengthAdjust="spacing" textLength="85.5" x="1010.25" y="206.5825">contract</text><ellipse cx="1057.5" cy="138.6445" fill="#E2E2F0" rx="18" ry="18" style="stroke:#181818;stroke-width:0.75;"/><polygon fill="#181818" points="1051.5,120.6445,1060.5,113.1445,1057.5,120.6445,1060.5,128.1445,1051.5,120.6445" style="stroke:#181818;stroke-width:1.5;"/><text fill="#000000" font-family="sans-serif" font-size="21" lengthAdjust="spacing" textLength="136.5" x="984.75" y="1090.0122">MPLX staking</text><text fill="#000000" font-family="sans-serif" font-size="21" lengthAdjust="spacing" textLength="85.5" x="1010.25" y="1114.4575">contract</text><ellipse cx="1057.5" cy="1143.4102" fill="#E2E2F0" rx="18" ry="18" style="stroke:#181818;stroke-width:0.75;"/><polygon fill="#181818" points="1051.5,1125.4102,1060.5,1117.9102,1057.5,1125.4102,1060.5,1132.9102,1051.5,1125.4102" style="stroke:#181818;stroke-width:1.5;"/><text fill="#000000" font-family="sans-serif" font-size="21" lengthAdjust="spacing" textLength="132" x="1145.25" y="182.1372">MPLX reward</text><text fill="#000000" font-family="sans-serif" font-size="21" lengthAdjust="spacing" textLength="85.5" x="1168.5" y="206.5825">contract</text><ellipse cx="1215.75" cy="138.6445" fill="#E2E2F0" rx="18" ry="18" style="stroke:#181818;stroke-width:0.75;"/><polygon fill="#181818" points="1209.75,120.6445,1218.75,113.1445,1215.75,120.6445,1218.75,128.1445,1209.75,120.6445" style="stroke:#181818;stroke-width:1.5;"/><text fill="#000000" font-family="sans-serif" font-size="21" lengthAdjust="spacing" textLength="132" x="1145.25" y="1090.0122">MPLX reward</text><text fill="#000000" font-family="sans-serif" font-size="21" lengthAdjust="spacing" textLength="85.5" x="1168.5" y="1114.4575">contract</text><ellipse cx="1215.75" cy="1143.4102" fill="#E2E2F0" rx="18" ry="18" style="stroke:#181818;stroke-width:0.75;"/><polygon fill="#181818" points="1209.75,1125.4102,1218.75,1117.9102,1215.75,1125.4102,1218.75,1132.9102,1209.75,1125.4102" style="stroke:#181818;stroke-width:1.5;"/><text fill="#000000" font-family="sans-serif" font-size="21" lengthAdjust="spacing" textLength="78" x="1301.25" y="182.1372">Reward</text><text fill="#000000" font-family="sans-serif" font-size="21" lengthAdjust="spacing" textLength="45" x="1317.75" y="206.5825">pool</text><path d="M1317.75,108.6445 C1317.75,93.6445 1344.75,93.6445 1344.75,93.6445 C1344.75,93.6445 1371.75,93.6445 1371.75,108.6445 L1371.75,147.6445 C1371.75,162.6445 1344.75,162.6445 1344.75,162.6445 C1344.75,162.6445 1317.75,162.6445 1317.75,147.6445 L1317.75,108.6445 " fill="#E2E2F0" style="stroke:#181818;stroke-width:2.25;"/><path d="M1317.75,108.6445 C1317.75,123.6445 1344.75,123.6445 1344.75,123.6445 C1344.75,123.6445 1371.75,123.6445 1371.75,108.6445 " fill="none" style="stroke:#181818;stroke-width:2.25;"/><text fill="#000000" font-family="sans-serif" font-size="21" lengthAdjust="spacing" textLength="78" x="1301.25" y="1090.0122">Reward</text><text fill="#000000" font-family="sans-serif" font-size="21" lengthAdjust="spacing" textLength="45" x="1317.75" y="1114.4575">pool</text><path d="M1317.75,1134.4102 C1317.75,1119.4102 1344.75,1119.4102 1344.75,1119.4102 C1344.75,1119.4102 1371.75,1119.4102 1371.75,1134.4102 L1371.75,1173.4102 C1371.75,1188.4102 1344.75,1188.4102 1344.75,1188.4102 C1344.75,1188.4102 1317.75,1188.4102 1317.75,1173.4102 L1317.75,1134.4102 " fill="#E2E2F0" style="stroke:#181818;stroke-width:2.25;"/><path d="M1317.75,1134.4102 C1317.75,1149.4102 1344.75,1149.4102 1344.75,1149.4102 C1344.75,1149.4102 1371.75,1149.4102 1371.75,1134.4102 " fill="none" style="stroke:#181818;stroke-width:2.25;"/><text fill="#000000" font-family="sans-serif" font-size="21" lengthAdjust="spacing" textLength="87" x="1403.25" y="206.5825">Arweave</text><path d="M1424.25,133.0898 C1424.25,118.0898 1451.25,118.0898 1451.25,118.0898 C1451.25,118.0898 1478.25,118.0898 1478.25,133.0898 L1478.25,172.0898 C1478.25,187.0898 1451.25,187.0898 1451.25,187.0898 C1451.25,187.0898 1424.25,187.0898 1424.25,172.0898 L1424.25,133.0898 " fill="#E2E2F0" style="stroke:#181818;stroke-width:2.25;"/><path d="M1424.25,133.0898 C1424.25,148.0898 1451.25,148.0898 1451.25,148.0898 C1451.25,148.0898 1478.25,148.0898 1478.25,133.0898 " fill="none" style="stroke:#181818;stroke-width:2.25;"/><text fill="#000000" font-family="sans-serif" font-size="21" lengthAdjust="spacing" textLength="87" x="1403.25" y="1090.0122">Arweave</text><path d="M1424.25,1109.9648 C1424.25,1094.9648 1451.25,1094.9648 1451.25,1094.9648 C1451.25,1094.9648 1478.25,1094.9648 1478.25,1109.9648 L1478.25,1148.9648 C1478.25,1163.9648 1451.25,1163.9648 1451.25,1163.9648 C1451.25,1163.9648 1424.25,1163.9648 1424.25,1148.9648 L1424.25,1109.9648 " fill="#E2E2F0" style="stroke:#181818;stroke-width:2.25;"/><path d="M1424.25,1109.9648 C1424.25,1124.9648 1451.25,1124.9648 1451.25,1124.9648 C1451.25,1124.9648 1478.25,1124.9648 1478.25,1109.9648 " fill="none" style="stroke:#181818;stroke-width:2.25;"/><rect fill="#FFFF00" height="69.8906" rx="3.75" ry="3.75" style="stroke:#181818;stroke-width:0.75;" width="126" x="1595.25" y="140.1445"/><text fill="#000000" font-family="sans-serif" font-size="21" lengthAdjust="spacing" textLength="105" x="1605.75" y="170.1372">DAS Node</text><text fill="#000000" font-family="sans-serif" font-size="21" lengthAdjust="spacing" textLength="91.5" x="1612.5" y="194.5825">Operator</text><rect fill="#FFFF00" height="69.8906" rx="3.75" ry="3.75" style="stroke:#181818;stroke-width:0.75;" width="126" x="1595.25" y="1070.5195"/><text fill="#000000" font-family="sans-serif" font-size="21" lengthAdjust="spacing" textLength="105" x="1605.75" y="1100.5122">DAS Node</text><text fill="#000000" font-family="sans-serif" font-size="21" lengthAdjust="spacing" textLength="91.5" x="1612.5" y="1124.9575">Operator</text><rect fill="#EEEEEE" height="4.5" style="stroke:#EEEEEE;stroke-width:1.5;" width="1728.75" x="0" y="257.3848"/><line style="stroke:#000000;stroke-width:1.5;" x1="0" x2="1728.75" y1="257.3848" y2="257.3848"/><line style="stroke:#000000;stroke-width:1.5;" x1="0" x2="1728.75" y1="261.8848" y2="261.8848"/><rect fill="#EEEEEE" height="34.6992" style="stroke:#000000;stroke-width:3.0;" width="162" x="783.375" y="241.5352"/><text fill="#000000" font-family="sans-serif" font-size="19.5" font-weight="bold" lengthAdjust="spacing" textLength="133.5" x="792.375" y="265.6355">Initialization</text><polygon fill="#181818" points="1039.5,321.4336,1054.5,327.4336,1039.5,333.4336,1045.5,327.4336" style="stroke:#181818;stroke-width:1.5;"/><line style="stroke:#181818;stroke-width:1.5;" x1="45" x2="1048.5" y1="327.4336" y2="327.4336"/><text fill="#000000" font-family="sans-serif" font-size="19.5" lengthAdjust="spacing" textLength="127.5" x="55.5" y="319.8347">Make a stake</text><path d="M1065,298.7344 L1065,336.2344 L1491,336.2344 L1491,313.7344 L1476,298.7344 L1065,298.7344 " fill="#FEFFDD" style="stroke:#181818;stroke-width:0.75;"/><path d="M1476,298.7344 L1476,313.7344 L1491,313.7344 L1476,298.7344 " fill="#FEFFDD" style="stroke:#181818;stroke-width:0.75;"/><text fill="#000000" font-family="sans-serif" font-size="19.5" lengthAdjust="spacing" textLength="394.5" x="1074" y="324.3347">Rollup operation requires a stake in MPLX</text><polygon fill="#181818" points="692.25,392.332,707.25,398.332,692.25,404.332,698.25,398.332" style="stroke:#181818;stroke-width:1.5;"/><line style="stroke:#181818;stroke-width:1.5;" x1="165.75" x2="701.25" y1="398.332" y2="398.332"/><text fill="#000000" font-family="sans-serif" font-size="19.5" lengthAdjust="spacing" textLength="238.5" x="176.25" y="368.0339">Prepare uninitialized tree</text><text fill="#000000" font-family="sans-serif" font-size="19.5" lengthAdjust="spacing" textLength="178.5" x="176.25" y="390.7332">(spl::prepare_tree)</text><polygon fill="#181818" points="899.25,458.7305,914.25,464.7305,899.25,470.7305,905.25,464.7305" style="stroke:#181818;stroke-width:1.5;"/><line style="stroke:#181818;stroke-width:1.5;" x1="422.25" x2="908.25" y1="464.7305" y2="464.7305"/><text fill="#000000" font-family="sans-serif" font-size="19.5" lengthAdjust="spacing" textLength="151.5" x="432.75" y="434.4324">Create_account</text><text fill="#000000" font-family="sans-serif" font-size="19.5" lengthAdjust="spacing" textLength="252" x="432.75" y="457.1316">(spl_acount_compression)</text><line style="stroke:#181818;stroke-width:1.5;" x1="165.75" x2="228.75" y1="531.1289" y2="531.1289"/><line style="stroke:#181818;stroke-width:1.5;" x1="228.75" x2="228.75" y1="531.1289" y2="550.6289"/><line style="stroke:#181818;stroke-width:1.5;" x1="167.25" x2="228.75" y1="550.6289" y2="550.6289"/><polygon fill="#181818" points="182.25,544.6289,167.25,550.6289,182.25,556.6289,176.25,550.6289" style="stroke:#181818;stroke-width:1.5;"/><text fill="#000000" font-family="sans-serif" font-size="19.5" lengthAdjust="spacing" textLength="135" x="176.25" y="500.8308">Generate tree</text><text fill="#000000" font-family="sans-serif" font-size="19.5" lengthAdjust="spacing" textLength="225" x="176.25" y="523.53">(Rolled Mint Instruction)</text><polygon fill="#181818" points="1433.25,588.3281,1448.25,594.3281,1433.25,600.3281,1439.25,594.3281" style="stroke:#181818;stroke-width:1.5;"/><line style="stroke:#181818;stroke-width:1.5;" x1="165.75" x2="1442.25" y1="594.3281" y2="594.3281"/><text fill="#000000" font-family="sans-serif" font-size="19.5" lengthAdjust="spacing" textLength="121.5" x="176.25" y="586.7292">Upload JSON</text><polygon fill="#181818" points="404.25,654.7266,419.25,660.7266,404.25,666.7266,410.25,660.7266" style="stroke:#181818;stroke-width:1.5;"/><line style="stroke:#181818;stroke-width:1.5;" x1="165.75" x2="413.25" y1="660.7266" y2="660.7266"/><text fill="#000000" font-family="sans-serif" font-size="19.5" lengthAdjust="spacing" textLength="115.5" x="176.25" y="630.4285">Finalize tree</text><text fill="#000000" font-family="sans-serif" font-size="19.5" lengthAdjust="spacing" textLength="220.5" x="176.25" y="653.1277">(finilize_tree_with_root)</text><path d="M342.75,683.2266 L458.25,683.2266 L458.25,693.9258 L443.25,708.9258 L342.75,708.9258 L342.75,683.2266 " fill="#EEEEEE" style="stroke:#000000;stroke-width:2.25;"/><rect fill="none" height="92.0977" style="stroke:#000000;stroke-width:2.25;" width="522" x="342.75" y="683.2266"/><text fill="#000000" font-family="sans-serif" font-size="19.5" font-weight="bold" lengthAdjust="spacing" textLength="48" x="365.25" y="702.8269">loop</text><polygon fill="#181818" points="692.25,757.3242,707.25,763.3242,692.25,769.3242,698.25,763.3242" style="stroke:#181818;stroke-width:1.5;"/><line style="stroke:#181818;stroke-width:1.5;" x1="422.25" x2="701.25" y1="763.3242" y2="763.3242"/><text fill="#000000" font-family="sans-serif" font-size="19.5" lengthAdjust="spacing" textLength="129" x="432.75" y="733.0261">setup canopy</text><text fill="#000000" font-family="sans-serif" font-size="19.5" lengthAdjust="spacing" textLength="235.5" x="432.75" y="755.7253">(append_canopy_nodes)</text><polygon fill="#181818" points="1039.5,811.5234,1054.5,817.5234,1039.5,823.5234,1045.5,817.5234" style="stroke:#181818;stroke-width:1.5;"/><line style="stroke:#181818;stroke-width:1.5;" x1="422.25" x2="1048.5" y1="817.5234" y2="817.5234"/><text fill="#000000" font-family="sans-serif" font-size="19.5" lengthAdjust="spacing" textLength="117" x="432.75" y="809.9246">Check stake</text><polygon fill="#181818" points="692.25,855.2227,707.25,861.2227,692.25,867.2227,698.25,861.2227" style="stroke:#181818;stroke-width:1.5;"/><line style="stroke:#181818;stroke-width:1.5;" x1="422.25" x2="701.25" y1="861.2227" y2="861.2227"/><text fill="#000000" font-family="sans-serif" font-size="19.5" lengthAdjust="spacing" textLength="252" x="432.75" y="853.6238">init_merkle_tree_with_root</text><polygon fill="#181818" points="1326.75,898.9219,1341.75,904.9219,1326.75,910.9219,1332.75,904.9219" style="stroke:#181818;stroke-width:1.5;"/><line style="stroke:#181818;stroke-width:1.5;" x1="422.25" x2="1335.75" y1="904.9219" y2="904.9219"/><text fill="#000000" font-family="sans-serif" font-size="19.5" lengthAdjust="spacing" textLength="282" x="432.75" y="897.323">Adding fee to the reward pool</text><polygon fill="#181818" points="1640.25,942.6211,1655.25,948.6211,1640.25,954.6211,1646.25,948.6211" style="stroke:#181818;stroke-width:1.5;"/><line style="stroke:#181818;stroke-width:1.5;" x1="422.25" x2="1649.25" y1="948.6211" y2="948.6211"/><text fill="#000000" font-family="sans-serif" font-size="19.5" lengthAdjust="spacing" textLength="648" x="432.75" y="941.0222">Event create_rollup_tree (comes from both tree creator and staker)</text><polygon fill="#181818" points="1467.75,986.3203,1452.75,992.3203,1467.75,998.3203,1461.75,992.3203" style="stroke:#181818;stroke-width:1.5;"/><line style="stroke:#181818;stroke-width:1.5;" x1="1458.75" x2="1656.75" y1="992.3203" y2="992.3203"/><text fill="#000000" font-family="sans-serif" font-size="19.5" lengthAdjust="spacing" textLength="171" x="1476.75" y="984.7214">Raw JSON request</text><path d="M22.5,1011.8203 L22.5,1049.3203 L820.5,1049.3203 L820.5,1026.8203 L805.5,1011.8203 L22.5,1011.8203 " fill="#FEFFDD" style="stroke:#181818;stroke-width:0.75;"/><path d="M805.5,1011.8203 L805.5,1026.8203 L820.5,1026.8203 L805.5,1011.8203 " fill="#FEFFDD" style="stroke:#181818;stroke-width:0.75;"/><text fill="#000000" font-family="sans-serif" font-size="19.5" lengthAdjust="spacing" textLength="766.5" x="31.5" y="1037.4207">Resulting merkell tree is fully compatible with all existing bubblegum instructions</text><!--SRC=[ZLLBRzim3BxhLn3kOSsXnNhOnK06PDa36vQsI3fWXm26OhE944NI9Bbfz-j7INx4JWlC9vCc-V7naVR2IuG5UhwreeBtrpTmHQBTemHl4S5gAMl3NCd9xkRw0ti75-CdwQ3K1wCLAk-WKuuCsKO_GxRY1mHUUcr1g82PCQ0dQRALvtkq6N07wVNa8sGF8QdI8YSnsWJ5FCaCLGM4qA1eoHK7XVwexJv1b5fvgYYyPf_gpKRYjZwiLLGJGWOXOlTXu98v8mjUbhfMlWYbMdHEQ7Ng7L8sSfQCvhrD35HnppVSOQfXhPfOBhd5P8U0Y_kVly5H2uJQZb6ITjxeNl6pUEIs6hajetBWrMUrR3oCrlB4-fx4hh6zzSmUaJzXD6pUcU7MYr8OhZnadsShkDKL5Nfdq7RZ8dNGmiKBIgcFx1MQD7GIocD8a_ht5g4OcqxXkn9US2d-yc0AqobZYJTmzN7SACXXGP-0nxuYKzeJnSLs5vgnZ5G77TCDeIp-gGMDi3KFR0tDZUq8heon4_f5lDV6JwZt5gax2BKIRRfOnGrRgqjYLfwRP544tOHr78n14vDpY43OiZ1vaZIcvEGihLCnXs-eGedOueV2APi5TPowwRojOzSduoZDd2d2BoCrh-37wkxs3AjFFOUlGiLIMwH7gZx8iShYAFoki5hx2PDQ6nh1iEmtUkdGqvXAhhHvePZS69f7aUH24RdS94o8ZPfuneJv3ijzGuJ_0WwZAmvq7EMuWA5_lpZaDAigWeL7EbjUWzzXiveGzcoKOxiSENnveZkQxXmMwGP7IBYaEHCZ7wq-q4RwNRhIpK44JiIC1Ta9QuCD1hVanpYro6rqdgKLq4-qBltTMwAhfGzf7-AleFaN2CAjfNo9bvvMXAmXj00uMU2pSD5bqrKaUYwvRcV-0G00]--></g></svg>