<?xml version="1.0" encoding="us-ascii" standalone="no"?><svg xmlns="http://www.w3.org/2000/svg" xmlns:xlink="http://www.w3.org/1999/xlink" contentStyleType="text/css" height="1198.5px" preserveAspectRatio="none" style="width:1716px;height:1198px;background:#FFFFFF;" version="1.1" viewBox="0 0 1716 1198" width="1716px" zoomAndPan="magnify"><defs/><g><text fill="#000000" font-family="sans-serif" font-size="21" font-weight="bold" lengthAdjust="spacing" textLength="411" x="651" y="42.8027">Metagrid 0.1 - Merkel tree batch mint</text><rect fill="#DDDDDD" height="1115.2119" style="stroke:#181818;stroke-width:0.75;" width="235.5" x="1.5" y="65.2324"/><text fill="#000000" font-family="sans-serif" font-size="19.5" font-weight="bold" lengthAdjust="spacing" textLength="174" x="32.25" y="84.085">Same actor in 0.1</text><rect fill="#DDDDDD" height="1115.2119" style="stroke:#181818;stroke-width:0.75;" width="1032" x="354" y="65.2324"/><text fill="#000000" font-family="sans-serif" font-size="19.5" font-weight="bold" lengthAdjust="spacing" textLength="154.5" x="792.75" y="84.085">Solana network</text><rect fill="none" height="136.8633" style="stroke:#000000;stroke-width:2.25;" width="783" x="81" y="555.3896"/><line style="stroke:#181818;stroke-width:0.75;stroke-dasharray:5.0,5.0;" x1="43.5" x2="43.5" y1="212.6631" y2="1057.4795"/><line style="stroke:#181818;stroke-width:0.75;stroke-dasharray:5.0,5.0;" x1="163.5" x2="163.5" y1="212.6631" y2="1057.4795"/><line style="stroke:#181818;stroke-width:0.75;stroke-dasharray:5.0,5.0;" x1="423" x2="423" y1="212.6631" y2="1057.4795"/><line style="stroke:#181818;stroke-width:0.75;stroke-dasharray:5.0,5.0;" x1="712.5" x2="712.5" y1="212.6631" y2="1057.4795"/><line style="stroke:#181818;stroke-width:0.75;stroke-dasharray:5.0,5.0;" x1="913.5" x2="913.5" y1="212.6631" y2="1057.4795"/><line style="stroke:#181818;stroke-width:0.75;stroke-dasharray:5.0,5.0;" x1="1051.5" x2="1051.5" y1="212.6631" y2="1057.4795"/><line style="stroke:#181818;stroke-width:0.75;stroke-dasharray:5.0,5.0;" x1="1209" x2="1209" y1="212.6631" y2="1057.4795"/><line style="stroke:#181818;stroke-width:0.75;stroke-dasharray:5.0,5.0;" x1="1336.5" x2="1336.5" y1="212.6631" y2="1057.4795"/><line style="stroke:#181818;stroke-width:0.75;stroke-dasharray:5.0,5.0;" x1="1443" x2="1443" y1="212.6631" y2="1057.4795"/><line style="stroke:#181818;stroke-width:0.75;stroke-dasharray:5.0,5.0;" x1="1645.5" x2="1645.5" y1="212.6631" y2="1057.4795"/><text fill="#000000" font-family="sans-serif" font-size="21" lengthAdjust="spacing" textLength="64.5" x="7.5" y="208.2334">Staker</text><ellipse cx="44.25" cy="110.6807" fill="#E2E2F0" rx="12" ry="12" style="stroke:#181818;stroke-width:0.75;"/><path d="M44.25,122.6807 L44.25,163.1807 M24.75,134.6807 L63.75,134.6807 M44.25,163.1807 L24.75,185.6807 M44.25,163.1807 L63.75,185.6807 " fill="none" style="stroke:#181818;stroke-width:0.75;"/><text fill="#000000" font-family="sans-serif" font-size="21" lengthAdjust="spacing" textLength="64.5" x="7.5" y="1076.2822">Staker</text><ellipse cx="44.25" cy="1093.4619" fill="#E2E2F0" rx="12" ry="12" style="stroke:#181818;stroke-width:0.75;"/><path d="M44.25,1105.4619 L44.25,1145.9619 M24.75,1117.4619 L63.75,1117.4619 M44.25,1145.9619 L24.75,1168.4619 M44.25,1145.9619 L63.75,1168.4619 " fill="none" style="stroke:#181818;stroke-width:0.75;"/><text fill="#000000" font-family="sans-serif" font-size="21" lengthAdjust="spacing" textLength="126" x="96" y="208.2334">Tree creator</text><ellipse cx="163.5" cy="110.6807" fill="#E2E2F0" rx="12" ry="12" style="stroke:#181818;stroke-width:0.75;"/><path d="M163.5,122.6807 L163.5,163.1807 M144,134.6807 L183,134.6807 M163.5,163.1807 L144,185.6807 M163.5,163.1807 L183,185.6807 " fill="none" style="stroke:#181818;stroke-width:0.75;"/><text fill="#000000" font-family="sans-serif" font-size="21" lengthAdjust="spacing" textLength="126" x="96" y="1076.2822">Tree creator</text><ellipse cx="163.5" cy="1093.4619" fill="#E2E2F0" rx="12" ry="12" style="stroke:#181818;stroke-width:0.75;"/><path d="M163.5,1105.4619 L163.5,1145.9619 M144,1117.4619 L183,1117.4619 M163.5,1145.9619 L144,1168.4619 M163.5,1145.9619 L183,1168.4619 " fill="none" style="stroke:#181818;stroke-width:0.75;"/><text fill="#000000" font-family="sans-serif" font-size="21" lengthAdjust="spacing" textLength="117" x="360" y="183.501">Bubblegum</text><text fill="#000000" font-family="sans-serif" font-size="21" lengthAdjust="spacing" textLength="84" x="376.5" y="208.2334">contract</text><ellipse cx="423" cy="139.1982" fill="#E2E2F0" rx="18" ry="18" style="stroke:#181818;stroke-width:0.75;"/><polygon fill="#181818" points="417,121.1982,426,113.6982,423,121.1982,426,128.6982,417,121.1982" style="stroke:#181818;stroke-width:1.5;"/><text fill="#000000" font-family="sans-serif" font-size="21" lengthAdjust="spacing" textLength="117" x="360" y="1076.2822">Bubblegum</text><text fill="#000000" font-family="sans-serif" font-size="21" lengthAdjust="spacing" textLength="84" x="376.5" y="1101.0146">contract</text><ellipse cx="423" cy="1129.4443" fill="#E2E2F0" rx="18" ry="18" style="stroke:#181818;stroke-width:0.75;"/><polygon fill="#181818" points="417,1111.4443,426,1103.9443,423,1111.4443,426,1118.9443,417,1111.4443" style="stroke:#181818;stroke-width:1.5;"/><text fill="#000000" font-family="sans-serif" font-size="21" lengthAdjust="spacing" textLength="264" x="576" y="183.501">spl_account_compression</text><text fill="#000000" font-family="sans-serif" font-size="21" lengthAdjust="spacing" textLength="84" x="666" y="208.2334">contract</text><ellipse cx="712.5" cy="139.1982" fill="#E2E2F0" rx="18" ry="18" style="stroke:#181818;stroke-width:0.75;"/><polygon fill="#181818" points="706.5,121.1982,715.5,113.6982,712.5,121.1982,715.5,128.6982,706.5,121.1982" style="stroke:#181818;stroke-width:1.5;"/><text fill="#000000" font-family="sans-serif" font-size="21" lengthAdjust="spacing" textLength="264" x="576" y="1076.2822">spl_account_compression</text><text fill="#000000" font-family="sans-serif" font-size="21" lengthAdjust="spacing" textLength="84" x="666" y="1101.0146">contract</text><ellipse cx="712.5" cy="1129.4443" fill="#E2E2F0" rx="18" ry="18" style="stroke:#181818;stroke-width:0.75;"/><polygon fill="#181818" points="706.5,1111.4443,715.5,1103.9443,712.5,1111.4443,715.5,1118.9443,706.5,1111.4443" style="stroke:#181818;stroke-width:1.5;"/><text fill="#000000" font-family="sans-serif" font-size="21" lengthAdjust="spacing" textLength="46.5" x="886.5" y="183.501">Tree</text><text fill="#000000" font-family="sans-serif" font-size="21" lengthAdjust="spacing" textLength="91.5" x="864" y="208.2334">accounts</text><path d="M887.25,109.1982 C887.25,94.1982 914.25,94.1982 914.25,94.1982 C914.25,94.1982 941.25,94.1982 941.25,109.1982 L941.25,148.1982 C941.25,163.1982 914.25,163.1982 914.25,163.1982 C914.25,163.1982 887.25,163.1982 887.25,148.1982 L887.25,109.1982 " fill="#E2E2F0" style="stroke:#181818;stroke-width:2.25;"/><path d="M887.25,109.1982 C887.25,124.1982 914.25,124.1982 914.25,124.1982 C914.25,124.1982 941.25,124.1982 941.25,109.1982 " fill="none" style="stroke:#181818;stroke-width:2.25;"/><text fill="#000000" font-family="sans-serif" font-size="21" lengthAdjust="spacing" textLength="46.5" x="886.5" y="1076.2822">Tree</text><text fill="#000000" font-family="sans-serif" font-size="21" lengthAdjust="spacing" textLength="91.5" x="864" y="1101.0146">accounts</text><path d="M887.25,1120.4443 C887.25,1105.4443 914.25,1105.4443 914.25,1105.4443 C914.25,1105.4443 941.25,1105.4443 941.25,1120.4443 L941.25,1159.4443 C941.25,1174.4443 914.25,1174.4443 914.25,1174.4443 C914.25,1174.4443 887.25,1174.4443 887.25,1159.4443 L887.25,1120.4443 " fill="#E2E2F0" style="stroke:#181818;stroke-width:2.25;"/><path d="M887.25,1120.4443 C887.25,1135.4443 914.25,1135.4443 914.25,1135.4443 C914.25,1135.4443 941.25,1135.4443 941.25,1120.4443 " fill="none" style="stroke:#181818;stroke-width:2.25;"/><text fill="#000000" font-family="sans-serif" font-size="21" lengthAdjust="spacing" textLength="135" x="979.5" y="183.501">MPLX staking</text><text fill="#000000" font-family="sans-serif" font-size="21" lengthAdjust="spacing" textLength="84" x="1005" y="208.2334">contract</text><ellipse cx="1051.5" cy="139.1982" fill="#E2E2F0" rx="18" ry="18" style="stroke:#181818;stroke-width:0.75;"/><polygon fill="#181818" points="1045.5,121.1982,1054.5,113.6982,1051.5,121.1982,1054.5,128.6982,1045.5,121.1982" style="stroke:#181818;stroke-width:1.5;"/><text fill="#000000" font-family="sans-serif" font-size="21" lengthAdjust="spacing" textLength="135" x="979.5" y="1076.2822">MPLX staking</text><text fill="#000000" font-family="sans-serif" font-size="21" lengthAdjust="spacing" textLength="84" x="1005" y="1101.0146">contract</text><ellipse cx="1051.5" cy="1129.4443" fill="#E2E2F0" rx="18" ry="18" style="stroke:#181818;stroke-width:0.75;"/><polygon fill="#181818" points="1045.5,1111.4443,1054.5,1103.9443,1051.5,1111.4443,1054.5,1118.9443,1045.5,1111.4443" style="stroke:#181818;stroke-width:1.5;"/><text fill="#000000" font-family="sans-serif" font-size="21" lengthAdjust="spacing" textLength="132" x="1138.5" y="183.501">MPLX reward</text><text fill="#000000" font-family="sans-serif" font-size="21" lengthAdjust="spacing" textLength="84" x="1162.5" y="208.2334">contract</text><ellipse cx="1209" cy="139.1982" fill="#E2E2F0" rx="18" ry="18" style="stroke:#181818;stroke-width:0.75;"/><polygon fill="#181818" points="1203,121.1982,1212,113.6982,1209,121.1982,1212,128.6982,1203,121.1982" style="stroke:#181818;stroke-width:1.5;"/><text fill="#000000" font-family="sans-serif" font-size="21" lengthAdjust="spacing" textLength="132" x="1138.5" y="1076.2822">MPLX reward</text><text fill="#000000" font-family="sans-serif" font-size="21" lengthAdjust="spacing" textLength="84" x="1162.5" y="1101.0146">contract</text><ellipse cx="1209" cy="1129.4443" fill="#E2E2F0" rx="18" ry="18" style="stroke:#181818;stroke-width:0.75;"/><polygon fill="#181818" points="1203,1111.4443,1212,1103.9443,1209,1111.4443,1212,1118.9443,1203,1111.4443" style="stroke:#181818;stroke-width:1.5;"/><text fill="#000000" font-family="sans-serif" font-size="21" lengthAdjust="spacing" textLength="76.5" x="1294.5" y="183.501">Reward</text><text fill="#000000" font-family="sans-serif" font-size="21" lengthAdjust="spacing" textLength="46.5" x="1309.5" y="208.2334">pool</text><path d="M1310.25,109.1982 C1310.25,94.1982 1337.25,94.1982 1337.25,94.1982 C1337.25,94.1982 1364.25,94.1982 1364.25,109.1982 L1364.25,148.1982 C1364.25,163.1982 1337.25,163.1982 1337.25,163.1982 C1337.25,163.1982 1310.25,163.1982 1310.25,148.1982 L1310.25,109.1982 " fill="#E2E2F0" style="stroke:#181818;stroke-width:2.25;"/><path d="M1310.25,109.1982 C1310.25,124.1982 1337.25,124.1982 1337.25,124.1982 C1337.25,124.1982 1364.25,124.1982 1364.25,109.1982 " fill="none" style="stroke:#181818;stroke-width:2.25;"/><text fill="#000000" font-family="sans-serif" font-size="21" lengthAdjust="spacing" textLength="76.5" x="1294.5" y="1076.2822">Reward</text><text fill="#000000" font-family="sans-serif" font-size="21" lengthAdjust="spacing" textLength="46.5" x="1309.5" y="1101.0146">pool</text><path d="M1310.25,1120.4443 C1310.25,1105.4443 1337.25,1105.4443 1337.25,1105.4443 C1337.25,1105.4443 1364.25,1105.4443 1364.25,1120.4443 L1364.25,1159.4443 C1364.25,1174.4443 1337.25,1174.4443 1337.25,1174.4443 C1337.25,1174.4443 1310.25,1174.4443 1310.25,1159.4443 L1310.25,1120.4443 " fill="#E2E2F0" style="stroke:#181818;stroke-width:2.25;"/><path d="M1310.25,1120.4443 C1310.25,1135.4443 1337.25,1135.4443 1337.25,1135.4443 C1337.25,1135.4443 1364.25,1135.4443 1364.25,1120.4443 " fill="none" style="stroke:#181818;stroke-width:2.25;"/><text fill="#000000" font-family="sans-serif" font-size="21" lengthAdjust="spacing" textLength="87" x="1395" y="208.2334">Arweave</text><path d="M1416,133.9307 C1416,118.9307 1443,118.9307 1443,118.9307 C1443,118.9307 1470,118.9307 1470,133.9307 L1470,172.9307 C1470,187.9307 1443,187.9307 1443,187.9307 C1443,187.9307 1416,187.9307 1416,172.9307 L1416,133.9307 " fill="#E2E2F0" style="stroke:#181818;stroke-width:2.25;"/><path d="M1416,133.9307 C1416,148.9307 1443,148.9307 1443,148.9307 C1443,148.9307 1470,148.9307 1470,133.9307 " fill="none" style="stroke:#181818;stroke-width:2.25;"/><text fill="#000000" font-family="sans-serif" font-size="21" lengthAdjust="spacing" textLength="87" x="1395" y="1076.2822">Arweave</text><path d="M1416,1095.7119 C1416,1080.7119 1443,1080.7119 1443,1080.7119 C1443,1080.7119 1470,1080.7119 1470,1095.7119 L1470,1134.7119 C1470,1149.7119 1443,1149.7119 1443,1149.7119 C1443,1149.7119 1416,1149.7119 1416,1134.7119 L1416,1095.7119 " fill="#E2E2F0" style="stroke:#181818;stroke-width:2.25;"/><path d="M1416,1095.7119 C1416,1110.7119 1443,1110.7119 1443,1110.7119 C1443,1110.7119 1470,1110.7119 1470,1095.7119 " fill="none" style="stroke:#181818;stroke-width:2.25;"/><rect fill="#FFFF00" height="70.4648" rx="3.75" ry="3.75" style="stroke:#181818;stroke-width:0.75;" width="123" x="1584" y="140.6982"/><text fill="#000000" font-family="sans-serif" font-size="21" lengthAdjust="spacing" textLength="102" x="1594.5" y="171.501">DAS Node</text><text fill="#000000" font-family="sans-serif" font-size="21" lengthAdjust="spacing" textLength="93" x="1599" y="196.2334">Operator</text><rect fill="#FFFF00" height="70.4648" rx="3.75" ry="3.75" style="stroke:#181818;stroke-width:0.75;" width="123" x="1584" y="1055.9795"/><text fill="#000000" font-family="sans-serif" font-size="21" lengthAdjust="spacing" textLength="102" x="1594.5" y="1086.7822">DAS Node</text><text fill="#000000" font-family="sans-serif" font-size="21" lengthAdjust="spacing" textLength="93" x="1599" y="1111.5146">Operator</text><polygon fill="#181818" points="1033.5,258.1289,1048.5,264.1289,1033.5,270.1289,1039.5,264.1289" style="stroke:#181818;stroke-width:1.5;"/><line style="stroke:#181818;stroke-width:1.5;" x1="44.25" x2="1042.5" y1="264.1289" y2="264.1289"/><text fill="#000000" font-family="sans-serif" font-size="19.5" lengthAdjust="spacing" textLength="123" x="54.75" y="257.0156">Make a stake</text><path d="M1059,235.1631 L1059,272.6631 L1522.5,272.6631 L1522.5,250.1631 L1507.5,235.1631 L1059,235.1631 " fill="#FEFFDD" style="stroke:#181818;stroke-width:0.75;"/><path d="M1507.5,235.1631 L1507.5,250.1631 L1522.5,250.1631 L1507.5,235.1631 " fill="#FEFFDD" style="stroke:#181818;stroke-width:0.75;"/><text fill="#000000" font-family="sans-serif" font-size="19.5" lengthAdjust="spacing" textLength="432" x="1068" y="261.5156">Batch mint operation requires a stake in MPLX</text><polygon fill="#181818" points="694.5,329.5605,709.5,335.5605,694.5,341.5605,700.5,335.5605" style="stroke:#181818;stroke-width:1.5;"/><line style="stroke:#181818;stroke-width:1.5;" x1="163.5" x2="703.5" y1="335.5605" y2="335.5605"/><text fill="#000000" font-family="sans-serif" font-size="19.5" lengthAdjust="spacing" textLength="234" x="174" y="305.4814">Prepare uninitialized tree</text><text fill="#000000" font-family="sans-serif" font-size="19.5" lengthAdjust="spacing" textLength="169.5" x="174" y="328.4473">(spl::prepare_tree)</text><polygon fill="#181818" points="896.25,396.4922,911.25,402.4922,896.25,408.4922,902.25,402.4922" style="stroke:#181818;stroke-width:1.5;"/><line style="stroke:#181818;stroke-width:1.5;" x1="423" x2="905.25" y1="402.4922" y2="402.4922"/><text fill="#000000" font-family="sans-serif" font-size="19.5" lengthAdjust="spacing" textLength="145.5" x="433.5" y="372.4131">Create_account</text><text fill="#000000" font-family="sans-serif" font-size="19.5" lengthAdjust="spacing" textLength="247.5" x="433.5" y="395.3789">(spl_acount_compression)</text><line style="stroke:#181818;stroke-width:1.5;" x1="163.5" x2="226.5" y1="469.4238" y2="469.4238"/><line style="stroke:#181818;stroke-width:1.5;" x1="226.5" x2="226.5" y1="469.4238" y2="488.9238"/><line style="stroke:#181818;stroke-width:1.5;" x1="165" x2="226.5" y1="488.9238" y2="488.9238"/><polygon fill="#181818" points="180,482.9238,165,488.9238,180,494.9238,174,488.9238" style="stroke:#181818;stroke-width:1.5;"/><text fill="#000000" font-family="sans-serif" font-size="19.5" lengthAdjust="spacing" textLength="124.5" x="174" y="439.3447">Generate tree</text><text fill="#000000" font-family="sans-serif" font-size="19.5" lengthAdjust="spacing" textLength="228" x="174" y="462.3105">(Rolled Mint Instruction)</text><polygon fill="#181818" points="1425,526.8896,1440,532.8896,1425,538.8896,1431,532.8896" style="stroke:#181818;stroke-width:1.5;"/><line style="stroke:#181818;stroke-width:1.5;" x1="163.5" x2="1434" y1="532.8896" y2="532.8896"/><text fill="#000000" font-family="sans-serif" font-size="19.5" lengthAdjust="spacing" textLength="391.5" x="174" y="525.7764">Upload batch minted tree in form of JSON</text><path d="M81,555.3896 L192,555.3896 L192,566.3555 L177,581.3555 L81,581.3555 L81,555.3896 " fill="#EEEEEE" style="stroke:#000000;stroke-width:2.25;"/><rect fill="none" height="136.8633" style="stroke:#000000;stroke-width:2.25;" width="783" x="81" y="555.3896"/><text fill="#000000" font-family="sans-serif" font-size="19.5" font-weight="bold" lengthAdjust="spacing" textLength="43.5" x="103.5" y="575.7422">loop</text><polygon fill="#181818" points="405,607.3213,420,613.3213,405,619.3213,411,613.3213" style="stroke:#181818;stroke-width:1.5;"/><line style="stroke:#181818;stroke-width:1.5;" x1="163.5" x2="414" y1="613.3213" y2="613.3213"/><text fill="#000000" font-family="sans-serif" font-size="19.5" lengthAdjust="spacing" textLength="214.5" x="174" y="606.208">append_canopy_nodes</text><polygon fill="#181818" points="694.5,674.2529,709.5,680.2529,694.5,686.2529,700.5,680.2529" style="stroke:#181818;stroke-width:1.5;"/><line style="stroke:#181818;stroke-width:1.5;" x1="423" x2="703.5" y1="680.2529" y2="680.2529"/><text fill="#000000" font-family="sans-serif" font-size="19.5" lengthAdjust="spacing" textLength="126" x="433.5" y="650.1738">setup canopy</text><text fill="#000000" font-family="sans-serif" font-size="19.5" lengthAdjust="spacing" textLength="226.5" x="433.5" y="673.1396">(append_canopy_nodes)</text><polygon fill="#181818" points="405,751.6846,420,757.6846,405,763.6846,411,757.6846" style="stroke:#181818;stroke-width:1.5;"/><line style="stroke:#181818;stroke-width:1.5;" x1="163.5" x2="414" y1="757.6846" y2="757.6846"/><text fill="#000000" font-family="sans-serif" font-size="19.5" lengthAdjust="spacing" textLength="114" x="174" y="727.6055">Finalize tree</text><text fill="#000000" font-family="sans-serif" font-size="19.5" lengthAdjust="spacing" textLength="223.5" x="174" y="750.5713">(finilize_tree_with_root)</text><path d="M430.5,717.2358 L430.5,754.7358 L822,754.7358 L822,732.2358 L807,717.2358 L430.5,717.2358 " fill="#FEFFDD" style="stroke:#181818;stroke-width:0.75;"/><path d="M807,717.2358 L807,732.2358 L822,732.2358 L807,717.2358 " fill="#FEFFDD" style="stroke:#181818;stroke-width:0.75;"/><text fill="#000000" font-family="sans-serif" font-size="19.5" lengthAdjust="spacing" textLength="360" x="439.5" y="743.5884">Signed by both tree creator and staker</text><polygon fill="#181818" points="1033.5,795.6504,1048.5,801.6504,1033.5,807.6504,1039.5,801.6504" style="stroke:#181818;stroke-width:1.5;"/><line style="stroke:#181818;stroke-width:1.5;" x1="423" x2="1042.5" y1="801.6504" y2="801.6504"/><text fill="#000000" font-family="sans-serif" font-size="19.5" lengthAdjust="spacing" textLength="115.5" x="433.5" y="794.5371">Check stake</text><polygon fill="#181818" points="694.5,839.6162,709.5,845.6162,694.5,851.6162,700.5,845.6162" style="stroke:#181818;stroke-width:1.5;"/><line style="stroke:#181818;stroke-width:1.5;" x1="423" x2="703.5" y1="845.6162" y2="845.6162"/><text fill="#000000" font-family="sans-serif" font-size="19.5" lengthAdjust="spacing" textLength="253.5" x="433.5" y="838.5029">init_merkle_tree_with_root</text><polygon fill="#181818" points="1319.25,883.582,1334.25,889.582,1319.25,895.582,1325.25,889.582" style="stroke:#181818;stroke-width:1.5;"/><line style="stroke:#181818;stroke-width:1.5;" x1="423" x2="1328.25" y1="889.582" y2="889.582"/><text fill="#000000" font-family="sans-serif" font-size="19.5" lengthAdjust="spacing" textLength="280.5" x="433.5" y="882.4688">Adding fee to the reward pool</text><polygon fill="#181818" points="1627.5,927.5479,1642.5,933.5479,1627.5,939.5479,1633.5,933.5479" style="stroke:#181818;stroke-width:1.5;"/><line style="stroke:#181818;stroke-width:1.5;" x1="423" x2="1636.5" y1="933.5479" y2="933.5479"/><text fill="#000000" font-family="sans-serif" font-size="19.5" lengthAdjust="spacing" textLength="277.5" x="433.5" y="926.4346">Event create_batch_mint_tree</text><polygon fill="#181818" points="1459.5,971.5137,1444.5,977.5137,1459.5,983.5137,1453.5,977.5137" style="stroke:#181818;stroke-width:1.5;"/><line style="stroke:#181818;stroke-width:1.5;" x1="1450.5" x2="1644" y1="977.5137" y2="977.5137"/><text fill="#000000" font-family="sans-serif" font-size="19.5" lengthAdjust="spacing" textLength="166.5" x="1468.5" y="970.4004">Raw JSON request</text><path d="M21,997.0137 L21,1034.5137 L823.5,1034.5137 L823.5,1012.0137 L808.5,997.0137 L21,997.0137 " fill="#FEFFDD" style="stroke:#181818;stroke-width:0.75;"/><path d="M808.5,997.0137 L808.5,1012.0137 L823.5,1012.0137 L808.5,997.0137 " fill="#FEFFDD" style="stroke:#181818;stroke-width:0.75;"/><text fill="#000000" font-family="sans-serif" font-size="19.5" lengthAdjust="spacing" textLength="771" x="30" y="1023.3662">Resulting Merkle tree is fully compatible with all existing bubblegum instructions</text><!--SRC=[ZLKzRzim4DtvAmxAq7f8q0nTD1Hmt0-qg9F0Re0E1WHAEjk4QP8bgJZkh- -Hb2LBSO1g4a_tzTwzexpm4c6Edc-igE73pIrSqz7kK8AtY51oNsrXBvHdhkBaUtlpaRs3grTFCaAbzqOhLDv1PnnxibA_GBRaUmHUUMr1g50vOq1FicHBptTeC-0EqklPHyX-XTOgYvoEqISOPkdCKDL05TegMdB5GQ4_QBjB9IgjlDKIihkcB2LkclrAHHkbpo2awpuC_PsH1QygtIXV1A0MdHDQdKU7VesS9gTPxnCJrTppaZjC05QgpULIMEnqM73- -FCtEC8lr6PS9LbdhUr2dCK3j_KeR16DWwY-gqKRORIMPzwFTEnOxRsdze3y6QDZ-yuCjrvKmd3b8ViyNSAzhWdeWq7RpOhCmGfNHvHI7zX5aNI28kLXQ9KuV5jIGLH99d3zQKmDv32dJy0ZayYKzWXMRBO1_bsdRz2nIQf3pFrf10tk51846YYD98HmnjYPucBDIqEdoeyMYHE4HWablE1I_CKwhjPAlISzvRb97aMmJLYdl9WqYJU7M0XFsakHT1eBSVAghVDZ3jzG1OXugh_GKb8tyu3-ktBUDf7doJXBErtAy6IavlNPhT222GojjTs3NiEFvSCzOr9hG_oECdNmSk3649r5nPKsnqAH8boOnm3_6wGwz8s154amBcIQX56njufJYgz2nLcSg5ZJUC8vZg4u2ByjhDP-CbJBKcmK8IwFj0f-cv2trn1mqePBLrKlao6SLxgSRR7QjRByB-H1HCMUxcSvxdGOtoyk1Kthcih2cfhr6lmMswi1mfwFUZmjPmvVdkaMJ-YmY0Clmi1ZMNPo6uXZmGzn-75_q7cMoDFFj9RzZRf0rqWV6ff77Ar-7AmRAO_n1q9RICuGi06N4l15k1XHTgsANgwkv_iV]--></g></svg>