<svg xmlns="http://www.w3.org/2000/svg" xmlns:xlink="http://www.w3.org/1999/xlink" contentStyleType="text/css" height="1510.5px" preserveAspectRatio="none" style="width:1618px;height:1510px;background:#FFFFFF;" version="1.1" viewBox="0 0 1618 1510" width="1618.5px" zoomAndPan="magnify"><defs/><g><text fill="#000000" font-family="sans-serif" font-size="21" font-weight="bold" lengthAdjust="spacing" textLength="274.5" x="666" y="41.9927">MPLX staker rewarding</text><rect fill="#FFFFFF" height="75.3984" style="stroke:#181818;stroke-width:1.5;" width="15" x="243" y="292.7344"/><rect fill="#FFFFFF" height="134.9473" style="stroke:#181818;stroke-width:1.5;" width="15" x="513" y="1088.9707"/><rect fill="#FFFFFF" height="114.5977" style="stroke:#181818;stroke-width:1.5;" width="15" x="1019.25" y="850.125"/><line style="stroke:#181818;stroke-width:0.75;stroke-dasharray:5.0,5.0;" x1="45" x2="45" y1="181.3359" y2="1370.0156"/><line style="stroke:#181818;stroke-width:0.75;stroke-dasharray:5.0,5.0;" x1="249.75" x2="249.75" y1="181.3359" y2="1370.0156"/><line style="stroke:#181818;stroke-width:0.75;stroke-dasharray:5.0,5.0;" x1="520.5" x2="520.5" y1="181.3359" y2="1370.0156"/><line style="stroke:#181818;stroke-width:0.75;stroke-dasharray:5.0,5.0;" x1="676.5" x2="676.5" y1="181.3359" y2="1370.0156"/><line style="stroke:#181818;stroke-width:0.75;stroke-dasharray:5.0,5.0;" x1="771" x2="771" y1="181.3359" y2="1370.0156"/><line style="stroke:#181818;stroke-width:0.75;stroke-dasharray:5.0,5.0;" x1="1026" x2="1026" y1="181.3359" y2="1370.0156"/><line style="stroke:#181818;stroke-width:0.75;stroke-dasharray:5.0,5.0;" x1="1168.5" x2="1168.5" y1="181.3359" y2="1370.0156"/><line style="stroke:#181818;stroke-width:0.75;stroke-dasharray:5.0,5.0;" x1="1342.5" x2="1342.5" y1="181.3359" y2="1370.0156"/><line style="stroke:#181818;stroke-width:0.75;stroke-dasharray:5.0,5.0;" x1="1522.5" x2="1522.5" y1="181.3359" y2="1370.0156"/><text fill="#000000" font-family="sans-serif" font-size="21" lengthAdjust="spacing" textLength="66" x="7.5" y="176.3833">Staker</text><ellipse cx="45" cy="79.6406" fill="#E2E2F0" rx="12" ry="12" style="stroke:#181818;stroke-width:0.75;"/><path d="M45,91.6406 L45,132.1406 M25.5,103.6406 L64.5,103.6406 M45,132.1406 L25.5,154.6406 M45,132.1406 L64.5,154.6406 " fill="none" style="stroke:#181818;stroke-width:0.75;"/><text fill="#000000" font-family="sans-serif" font-size="21" lengthAdjust="spacing" textLength="66" x="7.5" y="1388.0083">Staker</text><ellipse cx="45" cy="1405.7109" fill="#E2E2F0" rx="12" ry="12" style="stroke:#181818;stroke-width:0.75;"/><path d="M45,1417.7109 L45,1458.2109 M25.5,1429.7109 L64.5,1429.7109 M45,1458.2109 L25.5,1480.7109 M45,1458.2109 L64.5,1480.7109 " fill="none" style="stroke:#181818;stroke-width:0.75;"/><text fill="#000000" font-family="sans-serif" font-size="21" lengthAdjust="spacing" textLength="136.5" x="177.75" y="151.938">MPLX staking</text><text fill="#000000" font-family="sans-serif" font-size="21" lengthAdjust="spacing" textLength="85.5" x="203.25" y="176.3833">contract</text><ellipse cx="250.5" cy="108.4453" fill="#E2E2F0" rx="18" ry="18" style="stroke:#181818;stroke-width:0.75;"/><polygon fill="#181818" points="244.5,90.4453,253.5,82.9453,250.5,90.4453,253.5,97.9453,244.5,90.4453" style="stroke:#181818;stroke-width:1.5;"/><text fill="#000000" font-family="sans-serif" font-size="21" lengthAdjust="spacing" textLength="136.5" x="177.75" y="1388.0083">MPLX staking</text><text fill="#000000" font-family="sans-serif" font-size="21" lengthAdjust="spacing" textLength="85.5" x="203.25" y="1412.4536">contract</text><ellipse cx="250.5" cy="1441.4063" fill="#E2E2F0" rx="18" ry="18" style="stroke:#181818;stroke-width:0.75;"/><polygon fill="#181818" points="244.5,1423.4063,253.5,1415.9063,250.5,1423.4063,253.5,1430.9063,244.5,1423.4063" style="stroke:#181818;stroke-width:1.5;"/><text fill="#000000" font-family="sans-serif" font-size="21" lengthAdjust="spacing" textLength="132" x="450" y="151.938">MPLX reward</text><text fill="#000000" font-family="sans-serif" font-size="21" lengthAdjust="spacing" textLength="85.5" x="473.25" y="176.3833">contract</text><ellipse cx="520.5" cy="108.4453" fill="#E2E2F0" rx="18" ry="18" style="stroke:#181818;stroke-width:0.75;"/><polygon fill="#181818" points="514.5,90.4453,523.5,82.9453,520.5,90.4453,523.5,97.9453,514.5,90.4453" style="stroke:#181818;stroke-width:1.5;"/><text fill="#000000" font-family="sans-serif" font-size="21" lengthAdjust="spacing" textLength="132" x="450" y="1388.0083">MPLX reward</text><text fill="#000000" font-family="sans-serif" font-size="21" lengthAdjust="spacing" textLength="85.5" x="473.25" y="1412.4536">contract</text><ellipse cx="520.5" cy="1441.4063" fill="#E2E2F0" rx="18" ry="18" style="stroke:#181818;stroke-width:0.75;"/><polygon fill="#181818" points="514.5,1423.4063,523.5,1415.9063,520.5,1423.4063,523.5,1430.9063,514.5,1423.4063" style="stroke:#181818;stroke-width:1.5;"/><text fill="#000000" font-family="sans-serif" font-size="21" lengthAdjust="spacing" textLength="78" x="633" y="151.938">Reward</text><text fill="#000000" font-family="sans-serif" font-size="21" lengthAdjust="spacing" textLength="45" x="649.5" y="176.3833">pool</text><path d="M649.5,78.4453 C649.5,63.4453 676.5,63.4453 676.5,63.4453 C676.5,63.4453 703.5,63.4453 703.5,78.4453 L703.5,117.4453 C703.5,132.4453 676.5,132.4453 676.5,132.4453 C676.5,132.4453 649.5,132.4453 649.5,117.4453 L649.5,78.4453 " fill="#E2E2F0" style="stroke:#181818;stroke-width:2.25;"/><path d="M649.5,78.4453 C649.5,93.4453 676.5,93.4453 676.5,93.4453 C676.5,93.4453 703.5,93.4453 703.5,78.4453 " fill="none" style="stroke:#181818;stroke-width:2.25;"/><text fill="#000000" font-family="sans-serif" font-size="21" lengthAdjust="spacing" textLength="78" x="633" y="1388.0083">Reward</text><text fill="#000000" font-family="sans-serif" font-size="21" lengthAdjust="spacing" textLength="45" x="649.5" y="1412.4536">pool</text><path d="M649.5,1432.4063 C649.5,1417.4063 676.5,1417.4063 676.5,1417.4063 C676.5,1417.4063 703.5,1417.4063 703.5,1432.4063 L703.5,1471.4063 C703.5,1486.4063 676.5,1486.4063 676.5,1486.4063 C676.5,1486.4063 649.5,1486.4063 649.5,1471.4063 L649.5,1432.4063 " fill="#E2E2F0" style="stroke:#181818;stroke-width:2.25;"/><path d="M649.5,1432.4063 C649.5,1447.4063 676.5,1447.4063 676.5,1447.4063 C676.5,1447.4063 703.5,1447.4063 703.5,1432.4063 " fill="none" style="stroke:#181818;stroke-width:2.25;"/><text fill="#000000" font-family="sans-serif" font-size="21" lengthAdjust="spacing" textLength="64.5" x="735" y="151.938">Rollup</text><text fill="#000000" font-family="sans-serif" font-size="21" lengthAdjust="spacing" textLength="45" x="744.75" y="176.3833">fees</text><path d="M744.75,78.4453 C744.75,63.4453 771.75,63.4453 771.75,63.4453 C771.75,63.4453 798.75,63.4453 798.75,78.4453 L798.75,117.4453 C798.75,132.4453 771.75,132.4453 771.75,132.4453 C771.75,132.4453 744.75,132.4453 744.75,117.4453 L744.75,78.4453 " fill="#E2E2F0" style="stroke:#181818;stroke-width:2.25;"/><path d="M744.75,78.4453 C744.75,93.4453 771.75,93.4453 771.75,93.4453 C771.75,93.4453 798.75,93.4453 798.75,78.4453 " fill="none" style="stroke:#181818;stroke-width:2.25;"/><text fill="#000000" font-family="sans-serif" font-size="21" lengthAdjust="spacing" textLength="64.5" x="735" y="1388.0083">Rollup</text><text fill="#000000" font-family="sans-serif" font-size="21" lengthAdjust="spacing" textLength="45" x="744.75" y="1412.4536">fees</text><path d="M744.75,1432.4063 C744.75,1417.4063 771.75,1417.4063 771.75,1417.4063 C771.75,1417.4063 798.75,1417.4063 798.75,1432.4063 L798.75,1471.4063 C798.75,1486.4063 771.75,1486.4063 771.75,1486.4063 C771.75,1486.4063 744.75,1486.4063 744.75,1471.4063 L744.75,1432.4063 " fill="#E2E2F0" style="stroke:#181818;stroke-width:2.25;"/><path d="M744.75,1432.4063 C744.75,1447.4063 771.75,1447.4063 771.75,1447.4063 C771.75,1447.4063 798.75,1447.4063 798.75,1432.4063 " fill="none" style="stroke:#181818;stroke-width:2.25;"/><text fill="#000000" font-family="sans-serif" font-size="21" lengthAdjust="spacing" textLength="115.5" x="964.5" y="151.938">Rollup fees</text><text fill="#000000" font-family="sans-serif" font-size="21" lengthAdjust="spacing" textLength="85.5" x="979.5" y="176.3833">contract</text><ellipse cx="1026.75" cy="108.4453" fill="#E2E2F0" rx="18" ry="18" style="stroke:#181818;stroke-width:0.75;"/><polygon fill="#181818" points="1020.75,90.4453,1029.75,82.9453,1026.75,90.4453,1029.75,97.9453,1020.75,90.4453" style="stroke:#181818;stroke-width:1.5;"/><text fill="#000000" font-family="sans-serif" font-size="21" lengthAdjust="spacing" textLength="115.5" x="964.5" y="1388.0083">Rollup fees</text><text fill="#000000" font-family="sans-serif" font-size="21" lengthAdjust="spacing" textLength="85.5" x="979.5" y="1412.4536">contract</text><ellipse cx="1026.75" cy="1441.4063" fill="#E2E2F0" rx="18" ry="18" style="stroke:#181818;stroke-width:0.75;"/><polygon fill="#181818" points="1020.75,1423.4063,1029.75,1415.9063,1026.75,1423.4063,1029.75,1430.9063,1020.75,1423.4063" style="stroke:#181818;stroke-width:1.5;"/><text fill="#000000" font-family="sans-serif" font-size="21" lengthAdjust="spacing" textLength="120" x="1104" y="151.938">Bubblegum</text><text fill="#000000" font-family="sans-serif" font-size="21" lengthAdjust="spacing" textLength="85.5" x="1121.25" y="176.3833">contract</text><ellipse cx="1168.5" cy="108.4453" fill="#E2E2F0" rx="18" ry="18" style="stroke:#181818;stroke-width:0.75;"/><polygon fill="#181818" points="1162.5,90.4453,1171.5,82.9453,1168.5,90.4453,1171.5,97.9453,1162.5,90.4453" style="stroke:#181818;stroke-width:1.5;"/><text fill="#000000" font-family="sans-serif" font-size="21" lengthAdjust="spacing" textLength="120" x="1104" y="1388.0083">Bubblegum</text><text fill="#000000" font-family="sans-serif" font-size="21" lengthAdjust="spacing" textLength="85.5" x="1121.25" y="1412.4536">contract</text><ellipse cx="1168.5" cy="1441.4063" fill="#E2E2F0" rx="18" ry="18" style="stroke:#181818;stroke-width:0.75;"/><polygon fill="#181818" points="1162.5,1423.4063,1171.5,1415.9063,1168.5,1423.4063,1171.5,1430.9063,1162.5,1423.4063" style="stroke:#181818;stroke-width:1.5;"/><text fill="#000000" font-family="sans-serif" font-size="21" lengthAdjust="spacing" textLength="168" x="1254" y="176.3833">NFT tree creator</text><ellipse cx="1342.5" cy="79.6406" fill="#E2E2F0" rx="12" ry="12" style="stroke:#181818;stroke-width:0.75;"/><path d="M1342.5,91.6406 L1342.5,132.1406 M1323,103.6406 L1362,103.6406 M1342.5,132.1406 L1323,154.6406 M1342.5,132.1406 L1362,154.6406 " fill="none" style="stroke:#181818;stroke-width:0.75;"/><text fill="#000000" font-family="sans-serif" font-size="21" lengthAdjust="spacing" textLength="168" x="1254" y="1388.0083">NFT tree creator</text><ellipse cx="1342.5" cy="1405.7109" fill="#E2E2F0" rx="12" ry="12" style="stroke:#181818;stroke-width:0.75;"/><path d="M1342.5,1417.7109 L1342.5,1458.2109 M1323,1429.7109 L1362,1429.7109 M1342.5,1458.2109 L1323,1480.7109 M1342.5,1458.2109 L1362,1480.7109 " fill="none" style="stroke:#181818;stroke-width:0.75;"/><text fill="#000000" font-family="sans-serif" font-size="21" lengthAdjust="spacing" textLength="145.5" x="1446" y="176.3833">Metaplex DAO</text><ellipse cx="1523.25" cy="79.6406" fill="#E2E2F0" rx="12" ry="12" style="stroke:#181818;stroke-width:0.75;"/><path d="M1523.25,91.6406 L1523.25,132.1406 M1503.75,103.6406 L1542.75,103.6406 M1523.25,132.1406 L1503.75,154.6406 M1523.25,132.1406 L1542.75,154.6406 " fill="none" style="stroke:#181818;stroke-width:0.75;"/><text fill="#000000" font-family="sans-serif" font-size="21" lengthAdjust="spacing" textLength="145.5" x="1446" y="1388.0083">Metaplex DAO</text><ellipse cx="1523.25" cy="1405.7109" fill="#E2E2F0" rx="12" ry="12" style="stroke:#181818;stroke-width:0.75;"/><path d="M1523.25,1417.7109 L1523.25,1458.2109 M1503.75,1429.7109 L1542.75,1429.7109 M1523.25,1458.2109 L1503.75,1480.7109 M1523.25,1458.2109 L1542.75,1480.7109 " fill="none" style="stroke:#181818;stroke-width:0.75;"/><rect fill="#FFFFFF" height="75.3984" style="stroke:#181818;stroke-width:1.5;" width="15" x="243" y="292.7344"/><rect fill="#FFFFFF" height="134.9473" style="stroke:#181818;stroke-width:1.5;" width="15" x="513" y="1088.9707"/><rect fill="#FFFFFF" height="114.5977" style="stroke:#181818;stroke-width:1.5;" width="15" x="1019.25" y="850.125"/><rect fill="#EEEEEE" height="4.5" style="stroke:#EEEEEE;stroke-width:1.5;" width="1608" x="0" y="227.1855"/><line style="stroke:#000000;stroke-width:1.5;" x1="0" x2="1608" y1="227.1855" y2="227.1855"/><line style="stroke:#000000;stroke-width:1.5;" x1="0" x2="1608" y1="231.6855" y2="231.6855"/><rect fill="#EEEEEE" height="34.6992" style="stroke:#000000;stroke-width:3.0;" width="360" x="624" y="211.3359"/><text fill="#000000" font-family="sans-serif" font-size="19.5" font-weight="bold" lengthAdjust="spacing" textLength="331.5" x="633" y="235.4363">Obtaining MPLX reward share</text><polygon fill="#181818" points="225,286.7344,240,292.7344,225,298.7344,231,292.7344" style="stroke:#181818;stroke-width:1.5;"/><line style="stroke:#181818;stroke-width:1.5;" x1="45" x2="234" y1="292.7344" y2="292.7344"/><text fill="#000000" font-family="sans-serif" font-size="19.5" lengthAdjust="spacing" textLength="127.5" x="55.5" y="285.1355">Make a stake</text><line style="stroke:#181818;stroke-width:1.5;" x1="258" x2="321" y1="366.6328" y2="366.6328"/><line style="stroke:#181818;stroke-width:1.5;" x1="321" x2="321" y1="366.6328" y2="386.1328"/><line style="stroke:#181818;stroke-width:1.5;" x1="250.5" x2="321" y1="386.1328" y2="386.1328"/><polygon fill="#181818" points="265.5,380.1328,250.5,386.1328,265.5,392.1328,259.5,386.1328" style="stroke:#181818;stroke-width:1.5;"/><text fill="#000000" font-family="sans-serif" font-size="19.5" lengthAdjust="spacing" textLength="219" x="268.5" y="336.3347">Calculate reward share</text><text fill="#000000" font-family="sans-serif" font-size="19.5" lengthAdjust="spacing" textLength="94.5" x="268.5" y="359.0339">for Staker</text><path d="M520.5,328.834 L520.5,366.334 L1584,366.334 L1584,343.834 L1569,328.834 L520.5,328.834 " fill="#FEFFDD" style="stroke:#181818;stroke-width:0.75;"/><path d="M1569,328.834 L1569,343.834 L1584,343.834 L1569,328.834 " fill="#FEFFDD" style="stroke:#181818;stroke-width:0.75;"/><text fill="#000000" font-family="sans-serif" font-size="19.5" lengthAdjust="spacing" textLength="1032" x="529.5" y="354.4343">Reward share multiplier depends on the stake period: 5 days - 1X, 3 months - 2X, 6 months - 4X, 1 year - 6X</text><rect fill="#EEEEEE" height="4.5" style="stroke:#EEEEEE;stroke-width:1.5;" width="1608" x="0" y="421.4824"/><line style="stroke:#000000;stroke-width:1.5;" x1="0" x2="1608" y1="421.4824" y2="421.4824"/><line style="stroke:#000000;stroke-width:1.5;" x1="0" x2="1608" y1="425.9824" y2="425.9824"/><rect fill="#EEEEEE" height="34.6992" style="stroke:#000000;stroke-width:3.0;" width="319.5" x="644.25" y="405.6328"/><text fill="#000000" font-family="sans-serif" font-size="19.5" font-weight="bold" lengthAdjust="spacing" textLength="291" x="653.25" y="429.7332">Reward fund from Rollups</text><polygon fill="#181818" points="1185,503.7305,1170,509.7305,1185,515.7305,1179,509.7305" style="stroke:#181818;stroke-width:1.5;"/><line style="stroke:#181818;stroke-width:1.5;" x1="1176" x2="1341" y1="509.7305" y2="509.7305"/><text fill="#000000" font-family="sans-serif" font-size="19.5" lengthAdjust="spacing" textLength="115.5" x="1194" y="479.4324">Create tree,</text><text fill="#000000" font-family="sans-serif" font-size="19.5" lengthAdjust="spacing" textLength="138" x="1194" y="502.1316">pay fee in SOL</text><polygon fill="#181818" points="788.25,547.4297,773.25,553.4297,788.25,559.4297,782.25,553.4297" style="stroke:#181818;stroke-width:1.5;"/><line style="stroke:#181818;stroke-width:1.5;" x1="779.25" x2="1167" y1="553.4297" y2="553.4297"/><text fill="#000000" font-family="sans-serif" font-size="19.5" lengthAdjust="spacing" textLength="235.5" x="797.25" y="545.8308">Collect fees from Rollups</text><rect fill="#EEEEEE" height="4.5" style="stroke:#EEEEEE;stroke-width:1.5;" width="1608" x="0" y="596.2793"/><line style="stroke:#000000;stroke-width:1.5;" x1="0" x2="1608" y1="596.2793" y2="596.2793"/><line style="stroke:#000000;stroke-width:1.5;" x1="0" x2="1608" y1="600.7793" y2="600.7793"/><rect fill="#EEEEEE" height="34.6992" style="stroke:#000000;stroke-width:3.0;" width="468" x="570" y="580.4297"/><text fill="#000000" font-family="sans-serif" font-size="19.5" font-weight="bold" lengthAdjust="spacing" textLength="439.5" x="579" y="604.53">Reward fund from Metaplex foundation</text><polygon fill="#181818" points="693,655.8281,678,661.8281,693,667.8281,687,661.8281" style="stroke:#181818;stroke-width:1.5;"/><line style="stroke:#181818;stroke-width:1.5;" x1="684" x2="1521.75" y1="661.8281" y2="661.8281"/><text fill="#000000" font-family="sans-serif" font-size="19.5" lengthAdjust="spacing" textLength="42" x="702" y="654.2292">fund</text><path d="M274.5,681.3281 L274.5,718.8281 L1078.5,718.8281 L1078.5,696.3281 L1063.5,681.3281 L274.5,681.3281 " fill="#FEFFDD" style="stroke:#181818;stroke-width:0.75;"/><path d="M1063.5,681.3281 L1063.5,696.3281 L1078.5,696.3281 L1063.5,681.3281 " fill="#FEFFDD" style="stroke:#181818;stroke-width:0.75;"/><text fill="#000000" font-family="sans-serif" font-size="19.5" lengthAdjust="spacing" textLength="772.5" x="283.5" y="706.9285">On the early stages, the rewarding is going to be additionally funded by Metaplex</text><rect fill="#EEEEEE" height="4.5" style="stroke:#EEEEEE;stroke-width:1.5;" width="1608" x="0" y="757.377"/><line style="stroke:#000000;stroke-width:1.5;" x1="0" x2="1608" y1="757.377" y2="757.377"/><line style="stroke:#000000;stroke-width:1.5;" x1="0" x2="1608" y1="761.877" y2="761.877"/><rect fill="#EEEEEE" height="34.6992" style="stroke:#000000;stroke-width:3.0;" width="240" x="684" y="741.5273"/><text fill="#000000" font-family="sans-serif" font-size="19.5" font-weight="bold" lengthAdjust="spacing" textLength="211.5" x="693" y="765.6277">Forming rewarding</text><polygon fill="#181818" points="1050.75,844.125,1035.75,850.125,1050.75,856.125,1044.75,850.125" style="stroke:#181818;stroke-width:1.5;"/><line style="stroke:#181818;stroke-width:1.5;" x1="1041.75" x2="1521.75" y1="850.125" y2="850.125"/><text fill="#000000" font-family="sans-serif" font-size="19.5" lengthAdjust="spacing" textLength="378" x="1059.75" y="842.5261">initiate rewards funding from rollup fees</text><path d="M397.5,798.7266 L397.5,881.2266 L1011,881.2266 L1011,813.7266 L996,798.7266 L397.5,798.7266 " fill="#FEFFDD" style="stroke:#181818;stroke-width:0.75;"/><path d="M996,798.7266 L996,813.7266 L1011,813.7266 L996,798.7266 " fill="#FEFFDD" style="stroke:#181818;stroke-width:0.75;"/><text fill="#000000" font-family="sans-serif" font-size="19.5" lengthAdjust="spacing" textLength="582" x="406.5" y="824.3269">Fill up the rewards pool funded from the collected rollup fees.</text><text fill="#000000" font-family="sans-serif" font-size="19.5" lengthAdjust="spacing" textLength="517.5" x="406.5" y="847.0261">The pool will be filled up for some time, ie for a month.</text><text fill="#000000" font-family="sans-serif" font-size="19.5" lengthAdjust="spacing" textLength="441" x="406.5" y="869.7253">And it will be refilled periodically (e.g. monthly)</text><polygon fill="#181818" points="788.25,915.0234,773.25,921.0234,788.25,927.0234,782.25,921.0234" style="stroke:#181818;stroke-width:1.5;"/><polygon fill="#181818" points="1001.25,915.0234,1016.25,921.0234,1001.25,927.0234,1007.25,921.0234" style="stroke:#181818;stroke-width:1.5;"/><line style="stroke:#181818;stroke-width:1.5;" x1="779.25" x2="1010.25" y1="921.0234" y2="921.0234"/><text fill="#000000" font-family="sans-serif" font-size="19.5" lengthAdjust="spacing" textLength="211.5" x="797.25" y="913.4246">Conver SOL into MPLX</text><polygon fill="#181818" points="693,958.7227,678,964.7227,693,970.7227,687,964.7227" style="stroke:#181818;stroke-width:1.5;"/><line style="stroke:#181818;stroke-width:1.5;" x1="684" x2="1025.25" y1="964.7227" y2="964.7227"/><text fill="#000000" font-family="sans-serif" font-size="19.5" lengthAdjust="spacing" textLength="228" x="702" y="957.1238">Fund rewards with MPLX</text><rect fill="#EEEEEE" height="4.5" style="stroke:#EEEEEE;stroke-width:1.5;" width="1608" x="0" y="1007.5723"/><line style="stroke:#000000;stroke-width:1.5;" x1="0" x2="1608" y1="1007.5723" y2="1007.5723"/><line style="stroke:#000000;stroke-width:1.5;" x1="0" x2="1608" y1="1012.0723" y2="1012.0723"/><rect fill="#EEEEEE" height="34.6992" style="stroke:#000000;stroke-width:3.0;" width="238.5" x="684.75" y="991.7227"/><text fill="#000000" font-family="sans-serif" font-size="19.5" font-weight="bold" lengthAdjust="spacing" textLength="210" x="693.75" y="1015.823">Perfrom rewarding</text><polygon fill="#181818" points="544.5,1082.9707,529.5,1088.9707,544.5,1094.9707,538.5,1088.9707" style="stroke:#181818;stroke-width:1.5;"/><line style="stroke:#181818;stroke-width:1.5;" x1="535.5" x2="1521.75" y1="1088.9707" y2="1088.9707"/><text fill="#000000" font-family="sans-serif" font-size="19.5" lengthAdjust="spacing" textLength="163.5" x="553.5" y="1081.3718">initiate rewarding</text><path d="M27,1048.9219 L27,1108.9219 L505.5,1108.9219 L505.5,1063.9219 L490.5,1048.9219 L27,1048.9219 " fill="#FEFFDD" style="stroke:#181818;stroke-width:0.75;"/><path d="M490.5,1048.9219 L490.5,1063.9219 L505.5,1063.9219 L490.5,1048.9219 " fill="#FEFFDD" style="stroke:#181818;stroke-width:0.75;"/><text fill="#000000" font-family="sans-serif" font-size="19.5" lengthAdjust="spacing" textLength="379.5" x="36" y="1074.5222">This is done periodically and more often</text><text fill="#000000" font-family="sans-serif" font-size="19.5" lengthAdjust="spacing" textLength="447" x="36" y="1097.2214">than the filling up of the reward pool, e.g. daily.</text><polygon fill="#181818" points="544.5,1158.3691,529.5,1164.3691,544.5,1170.3691,538.5,1164.3691" style="stroke:#181818;stroke-width:1.5;"/><polygon fill="#181818" points="658.5,1158.3691,673.5,1164.3691,658.5,1170.3691,664.5,1164.3691" style="stroke:#181818;stroke-width:1.5;"/><line style="stroke:#181818;stroke-width:1.5;" x1="535.5" x2="667.5" y1="1164.3691" y2="1164.3691"/><text fill="#000000" font-family="sans-serif" font-size="19.5" lengthAdjust="spacing" textLength="112.5" x="553.5" y="1156.7703">Take MPLXs</text><path d="M684,1124.3203 L684,1184.3203 L1519.5,1184.3203 L1519.5,1139.3203 L1504.5,1124.3203 L684,1124.3203 " fill="#FEFFDD" style="stroke:#181818;stroke-width:0.75;"/><path d="M1504.5,1124.3203 L1504.5,1139.3203 L1519.5,1139.3203 L1504.5,1124.3203 " fill="#FEFFDD" style="stroke:#181818;stroke-width:0.75;"/><text fill="#000000" font-family="sans-serif" font-size="19.5" lengthAdjust="spacing" textLength="750" x="693" y="1149.9207">Take MPLXs that should be unlocked (1/30th of the pool, if the reward pool was</text><text fill="#000000" font-family="sans-serif" font-size="19.5" lengthAdjust="spacing" textLength="804" x="693" y="1172.6199">filled up for 30 days and the last reward distribution happened exactly 24 hours ago)</text><polygon fill="#181818" points="267,1217.918,252,1223.918,267,1229.918,261,1223.918" style="stroke:#181818;stroke-width:1.5;"/><line style="stroke:#181818;stroke-width:1.5;" x1="258" x2="519" y1="1223.918" y2="1223.918"/><text fill="#000000" font-family="sans-serif" font-size="19.5" lengthAdjust="spacing" textLength="207" x="276" y="1216.3191">Share among stakers</text><path d="M130.5,1243.418 L130.5,1280.918 L1222.5,1280.918 L1222.5,1258.418 L1207.5,1243.418 L130.5,1243.418 " fill="#FEFFDD" style="stroke:#181818;stroke-width:0.75;"/><path d="M1207.5,1243.418 L1207.5,1258.418 L1222.5,1258.418 L1207.5,1243.418 " fill="#FEFFDD" style="stroke:#181818;stroke-width:0.75;"/><text fill="#000000" font-family="sans-serif" font-size="19.5" lengthAdjust="spacing" textLength="1060.5" x="139.5" y="1269.0183">MLPXs from the Reward pool are shared among stakers based on their stake share and reward share multiplier</text><polygon fill="#181818" points="61.5,1337.0156,46.5,1343.0156,61.5,1349.0156,55.5,1343.0156" style="stroke:#181818;stroke-width:1.5;"/><polygon fill="#181818" points="232.5,1337.0156,247.5,1343.0156,232.5,1349.0156,238.5,1343.0156" style="stroke:#181818;stroke-width:1.5;"/><line style="stroke:#181818;stroke-width:1.5;" x1="52.5" x2="241.5" y1="1343.0156" y2="1343.0156"/><text fill="#000000" font-family="sans-serif" font-size="19.5" lengthAdjust="spacing" textLength="169.5" x="70.5" y="1312.7175">collect the reward</text><text fill="#000000" font-family="sans-serif" font-size="19.5" lengthAdjust="spacing" textLength="141" x="70.5" y="1335.4167">(claim_reward)</text><!--SRC=[TLPDR-8m4BtdLupOmxOIPKk_3bLPgTiLfxAjMWuSAgrCCe1L9qQsKvP_lpDsI1mIKANYyRoPyPldCKuwXJ1xVLw0TU8J3HZS2PF9OftOLD3UU7IRV8TldKymGghphIwmS1Pgux5d8bAd3GpUVOO120lXQvBgmXcjO51NG8a_2cycKErArgVATeG9vHv1thonHcJ2YQMm28EtodkhjOeyNsaPUscbokr7iKAqmSiRfhHiiWSRiCznzjgxM_ElShbKk2xp6CEWUgCY2mP_fdDm1X5IWu9CFlQS34zXVM1rXavi5Vw3tuyltkTWI7gxKNTE5WuvlzJ5wTvnzoOJU5aw8Glg0aIaWzq8Wp2P9A6RSF7pk5bm3pFQ0X7KnINBB-6mqrIWpp6sDzoJK6cfE4HS1FMAgAX4bU79D4cX6IdN6qxv5XyZBvMJMoNf71bkiSWiw0BS1aFfi4KZTNOFjv29lOKB62-6S0qvXTxmyegMTytoXfPZsACWMk1kaL10uEIUpYhngYJZokYyaenbBfEenKn1BGm-F9lHgs988XPxbXyr4jvVdfF6aL2D1Xb62oJsMAkjVFt5r89QQR895eWlhBPp_FhUK7o6LjJgB-8lkbG0Bu548aBjcSersg6tr8C6f8MrvYzEmvB4acMIamf528wD6IptZQnRL4wroHdQHEkKshcEL3A9sSb6HTRdORHdm3HtEnnBuOe5CvLA0MqqvLlWKNAeqeDvCmsCaoaADQ88SzhqY1s7eiEkw3-viGlrs-gSsYjp7894Rn51Kenzf7DBLoCDLjYWJ9bwlivmj1u5ZDgVDrpLLw9dEl7bws7feQkZWjjBOkFXeVqiE0K-riYKvNNWR2VT9g2ZkzfJ63Vu5KteoUa6jwPzjxdybaLjd6z8R_INqRFLvavGYRccMQ1N3el4RKJGBlFCYQb9UXKrttTo29xnJ4Yr7qNQRCxLVemyN-sA7ux9clF0ONwiTu-6LhD3TGX7iqkNAcCvb8NIwIV9uMpyu_gI-ArA3JNAJjsm4pPfg-_wCimsve6zbR3k0CcaTKOkIpyDDc9B4vA0-8_g9-QkRe0ACGHTwtDVSqr4ptbx1_kxdyA2bBkkVehObZhQBFPFczdpwy8sj_0jEYq7zuC-Q-S0VlApQjHBKmtxy2I8MhATDo9gTFNuFVIUgXe44VaVnLcgXCp_XkLvyXy0]--></g></svg>